<svg width="2897" height="512" viewBox="0 0 2897 512" fill="none" xmlns="http://www.w3.org/2000/svg">
<g clip-path="url(#clip0_7676_790768)">
<path d="M283.63 321.674V368.053C288.484 369.132 293.337 369.671 298.191 369.671C315.448 369.671 331.087 361.582 331.087 343.785C331.087 327.067 318.145 320.056 300.348 320.056C294.955 320.056 289.562 320.596 283.63 321.674ZM396.586 266.271C432.179 273.282 469.533 314.902 466.973 362.121C457.375 428.375 418.276 460.795 319.586 460.795C265.657 460.795 123.706 446.742 121.01 444.585C118.852 442.967 148.268 187.93 148.268 115.126C148.268 104.88 148.268 98.408 148.807 97.8687C150.425 93.5544 255.048 91.3972 267.991 91.3972C353.738 91.3972 440.008 110.272 440.008 193.862C429.007 232.691 420.315 250.093 396.586 266.271ZM280.933 193.323C280.933 199.255 280.394 232.152 280.394 232.152C283.091 232.691 285.787 232.691 288.484 232.691C304.662 232.691 314.369 225.141 314.369 211.12C314.369 198.716 303.044 192.784 288.484 192.784C285.787 192.784 283.63 193.323 280.933 193.323Z" fill="#CC9C00"/>
<path d="M269.886 311.362V356.244C274.583 357.288 279.28 357.81 283.977 357.81C300.678 357.81 315.813 349.982 315.813 332.759C315.813 316.581 303.288 309.796 286.065 309.796C280.846 309.796 275.627 310.318 269.886 311.362ZM390.966 261.782V264.913C425.411 271.698 455.159 303.011 455.159 350.504C455.159 426.178 397.228 456.97 301.722 456.97C249.532 456.97 148.285 452.795 145.676 450.707C143.588 449.142 138.891 181.932 138.891 111.476C138.891 101.56 138.891 95.2975 139.413 94.7756C140.979 90.6005 242.226 88.5129 254.751 88.5129C337.733 88.5129 429.064 106.779 429.064 187.673C429.064 229.946 413.929 246.125 390.966 261.782ZM267.277 187.151C267.277 192.892 266.755 224.727 266.755 224.727C269.364 225.249 271.974 225.249 274.583 225.249C290.24 225.249 299.634 217.943 299.634 204.373C299.634 192.37 288.675 186.629 274.583 186.629C271.974 186.629 269.886 187.151 267.277 187.151Z" fill="#F7CD01"/>
<path fill-rule="evenodd" clip-rule="evenodd" d="M181.362 20.7077C200.237 3.16045 231.377 23.8059 231.439 46.1178C231.469 57.3764 216.115 64.1472 208.819 71.0093C204.058 75.4866 203.318 75.931 203.004 82.4595C199.074 119.459 193.493 135.147 180.158 169.176C157.893 225.993 157.375 291.187 180.57 347.691C187.508 365.281 195.186 382.744 205.716 399.009C217.366 417.004 227.952 425.982 235.112 447.394C238.104 455.28 242.619 466.933 242.714 475.274C242.917 493.108 225.957 504.733 208.769 503.856C164.268 501.585 126.755 475.869 96.4915 446.151C46.8401 397.394 21.0891 330.544 23.0289 262.044C23.5908 242.595 25.9728 221.287 31.0609 202.165C41.82 161.73 66.7405 110.089 105.26 88.5659C111.483 85.1281 117.947 82.1217 124.603 79.5696C134.942 75.7018 152.194 71.3846 160.363 63.791C171.387 52.6788 170.063 31.2136 181.362 20.7077Z" fill="#CC9C00"/>
<path d="M220.484 445.372C223.35 453.278 227.677 464.96 227.715 473.302C227.797 491.137 211.184 502.648 194.431 501.657C151.053 499.09 114.642 473.124 85.325 443.205C37.2274 394.118 12.5527 327.098 14.8893 258.613C15.5635 239.169 18.0242 217.877 23.1097 198.789C33.8634 158.427 58.499 106.953 96.1985 85.687C102.289 82.2908 108.611 79.3276 115.117 76.8199C125.224 73.021 142.075 68.8186 150.089 61.2793C160.911 50.2408 159.759 28.7672 170.845 18.3369C189.363 0.915771 219.593 21.768 219.509 44.0799C219.466 55.3387 204.45 62.0069 197.291 68.8204C192.62 73.2661 191.894 73.7051 191.546 80.2314C187.474 117.204 181.931 132.854 168.707 166.794C146.627 223.461 145.698 288.651 167.949 345.308C174.599 362.944 181.972 380.457 192.134 396.792C203.377 414.864 213.641 423.913 220.484 445.372Z" fill="url(#paint0_radial_7676_790768)"/>
<path d="M220.484 445.372C223.35 453.278 227.677 464.96 227.715 473.302C227.797 491.137 211.184 502.648 194.431 501.657C151.053 499.09 114.642 473.124 85.325 443.205C37.2274 394.118 12.5527 327.098 14.8893 258.613C15.5635 239.169 18.0242 217.877 23.1097 198.789C33.8634 158.427 58.499 106.953 96.1985 85.687C102.289 82.2908 108.611 79.3276 115.117 76.8199C125.224 73.021 142.075 68.8186 150.089 61.2793C160.911 50.2408 159.759 28.7672 170.845 18.3369C189.363 0.915771 219.593 21.768 219.509 44.0799C219.466 55.3387 204.45 62.0069 197.291 68.8204C192.62 73.2661 191.894 73.7051 191.546 80.2314C187.474 117.204 181.931 132.854 168.707 166.794C146.627 223.461 145.698 288.651 167.949 345.308C174.599 362.944 181.972 380.457 192.134 396.792C203.377 414.864 213.641 423.913 220.484 445.372Z" fill="url(#paint1_radial_7676_790768)"/>
<path d="M102.869 277.569C104.635 279.212 104.476 283.144 104.875 285.874C112.25 336.236 143.977 379.793 173.224 419.931C180.826 430.365 196.519 450.55 200.61 462.093C197.803 461.718 189.493 451.791 186.041 448.974C178.517 442.835 168.289 436.04 161.943 429.085C152.737 418.994 146.574 401.211 140.521 388.539C125.163 356.382 101.555 313.934 102.869 277.569Z" fill="#FEF19C"/>
<path d="M94.2547 113.968C91.7951 117.501 87.3306 122.57 84.436 126.62C57.0524 164.938 49.267 191.194 44.0863 237.535L43.4016 236.823C42.5457 239.708 41.4013 241.324 40.7083 243.285C39.0259 229.39 45.5805 184.354 50.4538 169.954C57.0003 150.607 75.5127 123.585 94.2547 113.968Z" fill="#FEF19C"/>
<path d="M172.996 58.7494C174.833 58.8548 174.122 58.5993 175.664 59.8703C175.942 60.8125 175.984 62.4595 175.536 63.346C168.239 77.8107 158.953 107.539 138.006 100.666L132.872 96.7829C136.271 92.6807 142.17 87.612 146.203 83.7317C154.845 75.4161 162.728 64.816 172.996 58.7494Z" fill="#FEF19C"/>
<path d="M40.7118 243.286C41.4048 241.325 42.5492 239.709 43.4051 236.824L44.0898 237.535C42.9156 253.65 42.9978 270.149 43.4124 286.309C43.4912 289.382 45.0795 308.515 44.6249 309.861C40.1013 299.329 40.6507 256.388 40.7118 243.286Z" fill="#FEF896"/>
<path d="M146.017 68.2089C146.939 68.7807 146.562 68.3766 146.925 69.6488C143.131 77.4717 121.4 86.9842 113.331 91.372C113.141 91.325 112.556 90.7432 112.373 90.5794C113.824 86.5625 137.159 76.5109 140.871 72.2398C141.274 71.7751 145.173 68.8892 146.017 68.2089Z" fill="#FEF19C"/>
<path d="M187.29 24.6311C192.273 25.1885 201.903 28.8528 202.439 34.6102L201.347 35.1442L199.584 34.2661C194.558 31.749 184.683 30.8663 181.514 27.5784L181.625 26.3941C183.348 24.9322 185.036 24.9344 187.29 24.6311Z" fill="#FEF19C"/>
<path d="M318.601 105.949C279.167 95.6277 257.712 97.2508 222.92 105.949C188.128 114.647 218.571 110.297 218.571 110.297C218.571 110.297 274.526 101.987 318.601 114.647C347.803 123.035 368.955 130.281 392.536 149.44C403.721 158.528 414.282 179.884 414.282 179.884C414.282 179.884 408.305 160.271 401.234 149.44C381.301 118.903 353.88 115.182 318.601 105.949Z" fill="#FEF19C"/>
<path d="M428.473 303.395C415.995 288.782 388.184 275.147 388.184 275.147C388.184 275.147 399.113 282.145 405.581 288.613C418.628 301.66 416.94 298.159 422.977 306.009C430.862 316.263 438.036 323.731 440.374 336.453C443.119 351.394 443.294 367.113 437.735 381.251C437.735 381.251 451.364 355.467 448.096 339.689C444.829 323.911 438.936 315.648 428.473 303.395Z" fill="#FEF19C"/>
<path d="M283.803 236.424C277.171 237.897 266.406 236.424 266.406 236.424C266.406 236.424 268.015 239.484 275.105 240.773C282.578 242.131 291.479 241.794 296.85 236.424C302.221 231.053 305.549 223.376 305.549 223.376C305.549 223.376 293.471 234.275 283.803 236.424Z" fill="#FEF19C"/>
<path d="M289.602 366.409C280.759 367.827 266.406 366.409 266.406 366.409C266.406 366.409 268.551 369.354 278.004 370.595C287.968 371.903 299.837 371.579 306.998 366.409C314.159 361.238 318.596 353.849 318.596 353.849C318.596 353.849 302.492 364.341 289.602 366.409Z" fill="#FEF19C"/>
</g>
<path d="M700.228 459.699C692.123 451.594 701.456 421.147 699.336 411.073C699.336 407.016 623.418 407.546 619.176 407.016C619.176 411.257 606.147 459.699 602.966 459.699C599.254 461.82 459.041 454.964 448.967 447.541C457.981 413.078 549.563 94.095 554.335 90.9138C559.106 87.7326 728.596 82.8088 744.806 86.8612C746.397 87.3913 836.918 374.185 850.173 451.594C833.737 457.426 703.754 463.226 700.228 459.699ZM666.464 218.612C665.403 218.612 656.71 216.544 655.649 216.544C648.227 243.054 635.386 304.641 635.386 305.701C638.037 305.171 674.416 308.215 688.202 308.745C687.141 303.974 674.416 244.062 666.464 218.612Z" fill="#CC9C00"/>
<path d="M698.58 457.302C696.177 455.644 680.41 405.907 678.334 396.043C678.334 396.562 610.844 393.966 606.691 393.447C606.691 397.6 592.674 456.264 589.559 456.264C585.925 458.341 459.771 453.149 449.907 445.881C458.733 412.136 551.142 92.3397 555.814 89.2248C560.486 86.1099 712.598 82.995 725.057 85.5907C726.615 86.1099 823.696 369.566 836.674 445.362C820.581 451.073 700.138 457.302 698.58 457.302ZM646.146 207.591C645.108 207.591 644.589 208.11 643.551 208.11C636.282 234.068 623.304 294.289 623.304 295.327C625.899 294.808 653.934 295.327 667.431 295.847C666.393 291.174 653.934 232.51 646.146 207.591Z" fill="#F7CD01"/>
<path d="M708.334 103.068C700.229 99.0154 615.125 103.068 615.125 103.068C615.125 103.068 684.019 111.173 696.176 115.226C708.334 119.278 813.701 411.064 813.701 411.064C813.701 411.064 716.439 107.121 708.334 103.068Z" fill="#FEF19C"/>
<path d="M667.807 305.699H619.176C619.176 305.699 636.083 314.98 647.544 313.804C656.023 312.935 667.807 305.699 667.807 305.699Z" fill="#FEF19C"/>
<path d="M1468.53 459.699C1460.42 451.594 1469.76 421.147 1467.64 411.073C1467.64 407.016 1391.72 407.546 1387.48 407.016C1387.48 411.257 1374.45 459.699 1371.27 459.699C1367.55 461.82 1227.34 454.964 1217.27 447.541C1226.28 413.078 1317.86 94.095 1322.63 90.9138C1327.41 87.7326 1496.9 82.8088 1513.11 86.8612C1514.7 87.3913 1605.22 374.185 1618.47 451.594C1602.04 457.426 1472.05 463.226 1468.53 459.699ZM1434.76 218.612C1433.7 218.612 1425.01 216.544 1423.95 216.544C1416.53 243.054 1403.69 304.641 1403.69 305.701C1406.34 305.171 1442.72 308.215 1456.5 308.745C1455.44 303.974 1442.72 244.062 1434.76 218.612Z" fill="#CC9C00"/>
<path d="M1466.88 457.302C1464.48 455.644 1448.71 405.907 1446.63 396.043C1446.63 396.562 1379.14 393.966 1374.99 393.447C1374.99 397.6 1360.97 456.264 1357.86 456.264C1354.23 458.341 1228.07 453.149 1218.21 445.881C1227.03 412.136 1319.44 92.3397 1324.11 89.2248C1328.79 86.1099 1480.9 82.995 1493.36 85.5907C1494.91 86.1099 1592 369.566 1604.97 445.362C1588.88 451.073 1468.44 457.302 1466.88 457.302ZM1414.45 207.591C1413.41 207.591 1412.89 208.11 1411.85 208.11C1404.58 234.068 1391.6 294.289 1391.6 295.327C1394.2 294.808 1422.23 295.327 1435.73 295.847C1434.69 291.174 1422.23 232.51 1414.45 207.591Z" fill="#F7CD01"/>
<path d="M1476.63 103.068C1468.53 99.0154 1383.42 103.068 1383.42 103.068C1383.42 103.068 1452.32 111.173 1464.48 115.226C1476.63 119.278 1582 411.064 1582 411.064C1582 411.064 1484.74 107.121 1476.63 103.068Z" fill="#FEF19C"/>
<path d="M1436.11 305.699H1387.48C1387.48 305.699 1404.38 314.98 1415.84 313.804C1424.32 312.935 1436.11 305.699 1436.11 305.699Z" fill="#FEF19C"/>
<path d="M1097.09 255.196H1099.74C1099.74 185.74 1073.63 109.471 1076.28 90.9138C1102.26 86.142 1210.01 82.8077 1218.12 94.9654C1222.17 103.07 1214.25 444.171 1210.01 451.593C1197.86 459.699 1081.7 461.524 1080.33 459.699C1068.17 443.488 1047.91 402.962 1014.91 325.712L1011.73 325.181C1011.73 386.684 1007.38 447.541 1003.33 455.646C999.279 463.751 866.074 460.948 865.543 455.646C862.362 440.801 861.491 111.176 873.649 90.9133C906.069 78.7557 1003.03 84.1026 1007.38 90.9133C1015.87 104.168 1058.38 177.787 1097.09 255.196Z" fill="#CC9C00"/>
<path d="M1071.83 243.412H1074.42C1074.42 175.403 1071.31 108.952 1073.9 90.7815C1099.34 86.1091 1197.85 82.8055 1205.96 90.9107C1209.51 94.463 1202.65 436.016 1198.5 443.285C1195.9 455.225 1088.43 459.696 1080.33 459.696C1064.12 447.538 1036.53 382.544 991.359 312.459L988.244 311.94C988.244 372.161 995.222 431.328 991.169 454.505C974.959 459.696 861.572 459.696 861.052 454.505C857.938 439.968 855.861 116.739 861.052 94.4156C862.61 81.956 979.012 82.8058 984.61 86.1091C992.917 99.0879 1033.93 167.616 1071.83 243.412Z" fill="#F7CD01"/>
<path d="M966.858 103.068C958.752 99.0154 885.806 103.068 885.806 103.068C885.806 103.068 954.7 111.173 962.805 115.226C970.91 119.278 1072.22 261.119 1072.22 261.119C1072.22 261.119 974.963 107.121 966.858 103.068Z" fill="#FEF19C"/>
<path d="M1185.69 115.226L1153.27 107.121L1173.54 127.384L1185.69 431.328V115.226Z" fill="#FEF19C"/>
<path d="M983.066 386.753L974.961 309.754V435.384L983.066 386.753Z" fill="#FEF19C"/>
<path d="M1865.38 255.196H1868.03C1868.03 185.74 1841.92 109.471 1844.57 90.9138C1870.55 86.142 1978.3 82.8077 1986.41 94.9654C1990.46 103.07 1982.54 444.171 1978.3 451.593C1966.15 459.699 1849.99 461.524 1848.62 459.699C1836.46 443.488 1816.2 402.962 1783.2 325.712L1780.02 325.181C1780.02 386.684 1775.67 447.541 1771.62 455.646C1767.57 463.751 1634.36 460.948 1633.83 455.646C1630.65 440.801 1629.78 111.176 1641.94 90.9133C1674.36 78.7557 1771.32 84.1026 1775.67 90.9133C1784.16 104.168 1826.67 177.787 1865.38 255.196Z" fill="#CC9C00"/>
<path d="M1840.12 243.412H1842.71C1842.71 175.403 1839.6 108.952 1842.2 90.7815C1867.63 86.1091 1966.14 82.8055 1974.25 90.9107C1977.8 94.463 1970.95 436.016 1966.79 443.285C1964.2 455.225 1856.72 459.696 1848.62 459.696C1832.41 447.538 1804.82 382.544 1759.65 312.459L1756.54 311.94C1756.54 372.161 1763.51 431.328 1759.46 454.505C1743.25 459.696 1629.86 459.696 1629.34 454.505C1626.23 439.968 1624.15 116.739 1629.34 94.4156C1630.9 81.956 1747.3 82.8058 1752.9 86.1091C1761.21 99.0879 1802.22 167.616 1840.12 243.412Z" fill="#F7CD01"/>
<path d="M1735.15 103.068C1727.04 99.0154 1654.1 103.068 1654.1 103.068C1654.1 103.068 1722.99 111.173 1731.1 115.226C1739.2 119.278 1840.52 261.119 1840.52 261.119C1840.52 261.119 1743.25 107.121 1735.15 103.068Z" fill="#FEF19C"/>
<path d="M1953.99 115.226L1921.57 107.121L1941.83 127.384L1953.99 431.328V115.226Z" fill="#FEF19C"/>
<path d="M1751.36 386.753L1743.25 309.754V435.384L1751.36 386.753Z" fill="#FEF19C"/>
<path d="M2196.3 330.015V338.121C2212.74 337.59 2277.35 334.069 2285.46 342.174C2289.51 346.226 2289.17 452.464 2285.46 455.646C2281.21 459.357 2011.47 455.304 2009.88 451.593C2004.58 431.445 2019.61 360.174 2020.14 357.523C2021.2 355.402 2108.16 239.819 2125.65 217.021L2127.41 212.491C2112.56 211.96 2007.42 204.915 2005.83 204.385C2004.24 203.855 1995.41 93.0339 2001.77 90.9131C2008.67 87.7319 2273.3 82.8083 2277.35 86.8609C2281.4 90.9138 2291.63 195.903 2289.51 204.386C2288.98 207.037 2213.27 310.928 2196.3 330.015Z" fill="#CC9C00"/>
<path d="M2175.69 335.304V337.381C2191.79 336.861 2269.25 334.069 2278.48 339.976C2281.08 341.015 2280.04 446.921 2276.41 450.036C2272.25 453.67 2008.53 455.228 2006.97 451.594C2001.78 431.866 2001.26 346.725 2001.78 344.13C2002.82 342.053 2087.96 228.878 2105.09 206.555L2105.61 203.44C2091.07 202.921 2007.49 203.959 2005.93 203.44C2004.37 202.921 1995.55 91.8225 2001.78 89.7459C2008.53 86.6309 2265.2 82.8083 2269.25 86.8609C2273.3 90.9135 2281.08 189.942 2279 198.248C2278.48 200.844 2192.31 316.615 2175.69 335.304Z" fill="#F7CD01"/>
<path d="M2253.03 107.122C2244.93 94.9646 2034.2 107.122 2034.2 107.122C2034.2 107.122 2240.88 111.175 2244.93 115.227C2248.98 119.28 2265.19 143.595 2265.19 143.595C2265.19 143.595 2261.14 119.28 2253.03 107.122Z" fill="#FEF19C"/>
<path d="M2163.88 342.171C2163.88 334.066 2192.24 297.593 2192.24 297.593C2192.24 297.593 2143.61 342.171 2143.61 350.276C2143.61 358.381 2244.93 358.381 2244.93 358.381C2244.93 358.381 2236.82 354.329 2224.66 354.329C2212.51 354.329 2163.88 350.276 2163.88 342.171Z" fill="#FEF19C"/>
<path d="M2325.27 92.0107C2351.78 88.2993 2453.06 87.0113 2463.06 92.0112C2471.17 96.0638 2468.36 451.783 2463.06 460.796C2446.85 464.849 2317.17 460.796 2317.17 452.691C2313.99 425.651 2318.91 138.138 2325.27 92.0107Z" fill="#CC9C00"/>
<path d="M2320.46 92.4016C2346.42 88.7676 2445.21 86.1104 2453.36 91.3633C2460.66 96.0643 2456.99 442.828 2451.8 451.654C2449.73 464.113 2319.42 458.403 2318.9 453.73C2315.79 427.254 2314.23 137.568 2320.46 92.4016Z" fill="#F7CD01"/>
<path d="M2446.88 267.295C2444.19 203.967 2426.62 105.191 2426.62 105.191L2438.78 421.293C2438.78 421.293 2449.45 327.899 2446.88 267.295Z" fill="#FEF19C"/>
<path d="M2735.17 455.51C2727.01 447.619 2736.41 417.977 2734.28 408.17C2734.28 404.22 2657.83 404.736 2653.56 404.22C2653.56 408.349 2640.44 455.51 2637.24 455.51C2633.5 457.575 2492.32 450.9 2482.17 443.673C2491.25 410.122 2583.46 99.5741 2588.27 96.4771C2593.07 93.38 2763.74 88.5864 2780.06 92.5316C2781.66 93.0478 2872.81 372.258 2886.16 447.619C2869.61 453.297 2738.73 458.943 2735.17 455.51ZM2701.18 220.798C2700.11 220.798 2691.35 218.785 2690.29 218.785C2682.81 244.594 2669.88 304.552 2669.88 305.584C2672.55 305.068 2709.18 308.032 2723.07 308.548C2722 303.903 2709.18 245.575 2701.18 220.798Z" fill="#CC9C00"/>
<path d="M2729.55 456.556C2727.16 454.929 2711.47 406.148 2709.41 396.474C2709.41 396.983 2642.27 394.437 2638.14 393.928C2638.14 398.001 2624.19 455.537 2621.1 455.537C2617.48 457.574 2491.98 452.482 2482.17 445.354C2490.95 412.258 2582.88 98.6093 2587.53 95.5543C2592.17 92.4993 2743.49 89.4443 2755.89 91.9901C2757.44 92.4993 2854.01 370.506 2866.92 444.845C2850.91 450.446 2731.1 456.556 2729.55 456.556ZM2677.39 211.645C2676.35 211.645 2675.84 212.154 2674.81 212.154C2667.58 237.613 2654.66 296.676 2654.66 297.695C2657.25 297.186 2685.13 297.695 2698.56 298.204C2697.53 293.621 2685.13 236.085 2677.39 211.645Z" fill="#F7CD01"/>
<path d="M2745.61 92.8313C2737.76 88.8048 2655.31 92.8313 2655.31 92.8313C2655.31 92.8313 2722.05 100.884 2733.83 104.911C2745.61 108.937 2847.69 398.843 2847.69 398.843C2847.69 398.843 2753.46 96.8578 2745.61 92.8313Z" fill="#FEF19C"/>
<path d="M2703.8 306.798H2655.16C2655.16 306.798 2672.07 316.079 2683.53 314.903C2692.01 314.034 2703.8 306.798 2703.8 306.798Z" fill="#FEF19C"/>
<defs>
<radialGradient id="paint0_radial_7676_790768" cx="0" cy="0" r="1" gradientUnits="userSpaceOnUse" gradientTransform="translate(149.378 270.327) rotate(172.405) scale(122.653 345.715)">
<stop stop-color="#E6B70D"/>
<stop offset="0.528727" stop-color="#FFD816"/>
<stop offset="1" stop-color="#E6B70D"/>
</radialGradient>
<radialGradient id="paint1_radial_7676_790768" cx="0" cy="0" r="1" gradientUnits="userSpaceOnUse" gradientTransform="translate(204.965 269.012) rotate(74.9816) scale(275.251 181.192)">
<stop offset="0.0298048" stop-color="#C78B00"/>
<stop offset="0.488374" stop-color="#F0CC0C"/>
<stop offset="0.627816" stop-color="#E9CA17"/>
<stop offset="0.807234" stop-color="#DAA701"/>
<stop offset="1" stop-color="#BD8100"/>
</radialGradient>
<clipPath id="clip0_7676_790768">
<rect width="751.083" height="730.115" fill="white" transform="translate(-142.409 -98.4609)"/>
</clipPath>
</defs>
</svg>
