<svg width="114" height="40" viewBox="0 0 114 40" fill="none" xmlns="http://www.w3.org/2000/svg">
<path d="M12.9946 6.04995C13.2288 6.00664 13.6626 5.98932 13.9489 6.00664C14.2351 6.03262 14.6255 6.09336 14.8164 6.15399C15.0072 6.21462 15.3803 6.37051 15.6405 6.5091C16.0222 6.69966 17.1935 7.82576 21.6004 12.2174C26.6579 17.2672 27.1003 17.735 27.3432 18.2547C27.4907 18.5665 27.6468 19.0775 27.6989 19.398C27.7509 19.7791 27.7595 20.169 27.7075 20.4808C27.6641 20.758 27.5775 21.1392 27.5081 21.3297C27.4387 21.5203 27.2478 21.8927 27.0743 22.1526C26.8921 22.4211 24.3937 24.9764 21.3488 28.0081C16.456 32.8674 15.8921 33.4046 15.4236 33.6125C15.1374 33.7424 14.6515 33.8896 14.3393 33.9415C13.9142 34.0195 13.6279 34.0195 13.1681 33.9415C12.8298 33.8809 12.3874 33.7597 12.1705 33.6644C11.9536 33.5691 11.572 33.3353 11.3204 33.1447C11.0515 32.9455 10.7651 32.625 10.609 32.3565C10.4095 32.0014 10.3487 31.7847 10.3487 31.4209C10.3487 31.1611 10.4008 30.7713 10.4702 30.5547C10.5396 30.3382 10.7479 30.0176 10.9301 29.8357C11.1126 29.6536 12.9168 28.4583 14.9379 27.1938C17.1152 25.8253 18.6419 24.8119 18.6854 24.7079C18.7201 24.6126 18.7029 24.4393 18.6509 24.3267C18.5901 24.2141 18.4859 24.0842 18.4165 24.0322C18.3204 23.9717 16.4551 24.327 12.0837 25.219C8.67476 25.9119 5.67344 26.4835 5.42139 26.4836C5.11778 26.4836 4.83147 26.4143 4.55388 26.2757C4.32833 26.1631 4.03324 25.9466 3.89444 25.782C3.75566 25.6175 3.59093 25.3576 3.52152 25.2104C3.4608 25.0545 3.40868 24.7166 3.40867 24.4741C3.40867 24.2142 3.48678 23.859 3.57353 23.6685C3.66028 23.4779 3.82518 23.2007 3.94663 23.0621C4.05941 22.9235 4.32823 22.7157 4.54507 22.6118C4.89208 22.4385 5.72495 22.3518 14.0356 21.6329C19.0411 21.2085 23.2487 20.836 23.3788 20.81C23.5176 20.784 23.6563 20.6887 23.7083 20.5935C23.7517 20.4982 23.795 20.3683 23.7951 20.3163C23.8038 20.2557 23.7344 20.1171 23.6477 20.0132C23.5002 19.8226 23.075 19.7706 13.6886 18.6878C8.29337 18.0642 3.73941 17.5186 3.55625 17.4751C3.38276 17.4232 3.09641 17.2586 2.9229 17.1114C2.74074 16.9382 2.58459 16.6956 2.53253 16.5051C2.48915 16.2972 2.48916 16.0546 2.53253 15.8554C2.58457 15.6735 2.69736 15.4223 2.79278 15.2924C2.89687 15.1538 3.0877 14.9892 3.23517 14.9199C3.37396 14.8506 3.65158 14.7899 3.84243 14.7899C4.03328 14.7899 7.13897 15.2923 10.7391 15.916C14.3393 16.5396 17.393 17.042 17.5231 17.042C17.6619 17.0507 17.8266 16.99 17.896 16.9121C18.0001 16.7995 18.0088 16.7301 17.9308 16.5829C17.8526 16.4183 17.219 16.2103 13.7234 15.1883C11.4592 14.53 9.25567 13.8804 8.83059 13.7419C8.33615 13.5773 7.94585 13.3867 7.76366 13.2308C7.61618 13.0835 7.40788 12.815 7.31245 12.6244C7.19968 12.4079 7.13895 12.1047 7.13895 11.8015C7.13895 11.5071 7.20837 11.1866 7.31245 10.9614C7.42523 10.7102 8.13669 9.93928 9.4553 8.62266C11.1469 6.94225 11.5112 6.62164 11.997 6.39643C12.3093 6.24918 12.7517 6.09326 12.9946 6.04995Z" fill="#D6FE51"/>
<path d="M89.3093 12.7024C91.1136 12.7024 91.53 12.7284 91.8857 12.9709V19.0949C91.8857 24.2227 91.8684 25.2969 91.7556 25.704C91.6862 25.9639 91.5214 26.3883 91.3999 26.6568C91.2698 26.9167 90.9141 27.3758 90.5931 27.6963C90.2287 28.0687 89.821 28.3633 89.4567 28.5452C89.1531 28.6925 88.6412 28.8829 88.3289 28.9609C87.953 29.0591 87.4325 29.1082 86.7674 29.1082C86.1341 29.1082 85.5529 29.0562 85.1625 28.9609C84.8329 28.8743 84.269 28.6665 83.9046 28.5019C83.4449 28.2767 83.0892 28.0168 82.6901 27.6097C82.3431 27.2719 82.0309 26.8474 81.8921 26.5702C81.7707 26.3017 81.6317 25.8859 81.5797 25.6347C81.519 25.3834 81.4756 24.673 81.4756 22.9322L81.7186 22.7503C81.9094 22.6031 82.083 22.5771 82.6729 22.5771C83.0632 22.5771 83.497 22.6204 83.6271 22.6723C83.7572 22.7243 83.896 22.811 83.9307 22.8716C83.9654 22.924 83.9914 23.3828 83.9914 23.885C83.9914 24.4653 84.0434 24.9591 84.1302 25.2709C84.2343 25.6174 84.3731 25.8426 84.6507 26.1111C84.937 26.3883 85.18 26.5269 85.6224 26.6568C85.9434 26.7521 86.4031 26.8301 86.6373 26.8301C86.8802 26.8301 87.3313 26.7521 87.6349 26.6568C88.008 26.5529 88.3376 26.3709 88.5892 26.1544C88.806 25.9725 89.0576 25.6434 89.1531 25.4355C89.3179 25.0717 89.3265 24.8292 89.3786 15.7861L90.1593 15.0065L89.6302 14.4868L88.8061 15.301H88.0514C87.6351 15.301 87.2014 15.2577 87.0971 15.2058C86.9844 15.1538 86.8716 15.0671 86.8369 15.0151C86.8022 14.9545 86.7761 14.4953 86.7761 13.9843C86.7674 13.1701 86.7934 13.0315 86.9409 12.8843C87.1057 12.7197 87.236 12.7111 89.3093 12.7024Z" fill="#D6FE51"/>
<path fill-rule="evenodd" clip-rule="evenodd" d="M36.8424 12.5639C37.0593 12.4686 37.788 12.4513 40.7896 12.4772C43.9733 12.5032 44.5545 12.5292 44.997 12.6591C45.2833 12.7371 45.7864 12.9537 46.1161 13.1269C46.4804 13.3175 46.8968 13.6379 47.1657 13.9237C47.4347 14.2096 47.6862 14.5994 47.8164 14.9199C47.9899 15.3356 48.0246 15.5955 48.0246 16.2625C48.0246 16.8948 47.9813 17.1893 47.8425 17.5618C47.7384 17.8216 47.4868 18.2288 47.2786 18.454C47.0791 18.6878 46.8015 18.9303 46.6713 18.9996C46.5412 19.0602 46.3677 19.2075 46.2982 19.3114C46.2115 19.4413 46.1768 19.6059 46.2115 19.7878C46.2462 20.013 46.3764 20.1518 46.8448 20.4896C47.1831 20.7321 47.5649 21.1132 47.7557 21.3817C47.9292 21.6328 48.1373 22.0227 48.2154 22.2392C48.3021 22.4731 48.363 22.9149 48.363 23.3653C48.3716 23.859 48.3195 24.2488 48.2154 24.578C48.1286 24.8378 47.9291 25.2449 47.773 25.4875C47.6255 25.7213 47.3218 26.0851 47.0963 26.2843C46.8707 26.4835 46.4544 26.7694 46.1681 26.9167C45.8819 27.0553 45.4048 27.2371 45.1098 27.3151C44.6587 27.4364 43.9473 27.4623 40.9197 27.497C38.057 27.523 37.2068 27.5058 36.9292 27.4192C36.6776 27.3325 36.5475 27.2199 36.4348 27.0033C36.2873 26.7175 36.2786 26.2411 36.3046 19.9005C36.322 14.0277 36.3393 13.0662 36.452 12.8929C36.5301 12.7803 36.7036 12.6332 36.8424 12.5639ZM38.8811 25.1929C44.303 25.1496 44.4071 25.1411 44.7628 24.9505C44.9623 24.8466 45.2485 24.5867 45.396 24.3875C45.5348 24.1882 45.6996 23.8243 45.7516 23.5905C45.821 23.27 45.821 23.0275 45.7516 22.6984C45.6909 22.4472 45.5348 22.066 45.3874 21.8581C45.2052 21.5723 44.997 21.3991 44.6327 21.2258L44.1295 20.9919L38.8983 20.9313L38.8811 25.1929ZM38.8897 16.7822V18.7744C43.791 18.7311 43.9907 18.7225 44.355 18.5493C44.5718 18.454 44.8841 18.2201 45.0576 18.0295C45.2658 17.7957 45.4047 17.5444 45.4827 17.2153C45.5695 16.8428 45.5695 16.6436 45.4914 16.3058C45.4393 16.0632 45.3179 15.7427 45.2225 15.5868C45.127 15.4395 44.8842 15.2056 44.6847 15.067L44.3291 14.8332L38.8983 14.7813L38.8897 16.7822Z" fill="#D6FE51"/>
<path fill-rule="evenodd" clip-rule="evenodd" d="M98.0884 12.4512C98.4267 12.4165 98.9732 12.4078 99.3029 12.4251C99.6412 12.4511 100.205 12.5552 100.561 12.6505C100.925 12.7544 101.446 12.9709 101.723 13.1441C102.001 13.3087 102.478 13.7071 102.782 14.0276C103.146 14.4087 103.45 14.8332 103.64 15.2403C103.805 15.5868 104.005 16.1065 104.074 16.3924C104.152 16.6782 104.248 17.2672 104.274 17.7003C104.334 18.4712 104.334 18.5059 103.901 18.9477H96.4835L96.0325 18.5146C95.7809 18.2807 95.5379 18.0815 95.4859 18.0815C95.4425 18.0815 95.295 18.1854 94.922 18.5579L95.3905 19.0343C95.7288 19.3808 95.8936 19.632 96.0064 19.9871C96.0844 20.247 96.2753 20.6541 96.4315 20.888C96.5789 21.1219 96.8306 21.4163 96.9867 21.5549C97.1429 21.6935 97.4204 21.8841 97.6113 21.9794C97.8021 22.0746 98.2446 22.1873 98.5916 22.2392C98.9386 22.2912 99.3549 22.3085 99.5198 22.2825C99.6933 22.2479 100.006 22.17 100.214 22.1007C100.431 22.0314 100.743 21.8841 100.908 21.7628C101.081 21.6416 101.376 21.321 101.923 20.5501H102.86C103.744 20.5501 103.797 20.5588 103.961 20.7667C104.065 20.8966 104.109 21.0439 104.074 21.1565C104.039 21.2518 103.918 21.5203 103.797 21.7628C103.684 21.9967 103.467 22.3518 103.32 22.5424C103.172 22.733 102.842 23.0621 102.582 23.2787C102.331 23.4866 101.931 23.7551 101.706 23.8677C101.489 23.9804 101.012 24.1448 100.648 24.2401C100.214 24.3498 99.6933 24.4047 99.086 24.4047C98.4354 24.4047 97.993 24.3528 97.5245 24.2229C97.1688 24.1189 96.6049 23.9023 96.2666 23.7204C95.8762 23.5212 95.4338 23.1834 95.0087 22.7589C94.5663 22.3172 94.2453 21.9014 94.0197 21.4596C93.8289 21.0959 93.6034 20.5761 93.5167 20.2903C93.4213 19.9784 93.3345 19.3634 93.3084 18.7744C93.2651 18.0295 93.2911 17.5964 93.3952 17.0853C93.4733 16.7042 93.638 16.1325 93.7595 15.8294C93.8896 15.5175 94.1238 15.0584 94.2886 14.8072C94.4448 14.556 94.7572 14.1749 94.9654 13.967C95.1822 13.7505 95.564 13.4387 95.8156 13.2741C96.0672 13.1095 96.5442 12.8757 96.8739 12.7457C97.2122 12.6245 97.7587 12.4945 98.0884 12.4512ZM99.0513 14.5561C98.5655 14.5388 98.2445 14.5733 97.9669 14.6686C97.75 14.7466 97.4377 14.9025 97.2729 15.0065C97.1081 15.1104 96.8391 15.3443 96.6743 15.5348C96.5095 15.7167 96.3014 16.0372 96.2146 16.2364C96.0845 16.5569 96.0758 16.6436 96.1712 16.8427L96.2753 17.0853C100.552 17.1287 101.177 17.1027 101.333 17.0248C101.466 16.9497 101.529 16.8312 101.524 16.6695C101.524 16.5395 101.446 16.271 101.35 16.0632C101.255 15.8639 101.064 15.5608 100.934 15.3963C100.795 15.2317 100.474 14.9805 100.214 14.8419C99.8234 14.6253 99.6238 14.5821 99.0513 14.5561Z" fill="#D6FE51"/>
<path fill-rule="evenodd" clip-rule="evenodd" d="M54.3227 12.4512C54.635 12.4165 55.1468 12.3991 55.4504 12.4251C55.7627 12.4425 56.2485 12.5205 56.5348 12.5811C56.8211 12.6504 57.3503 12.8496 57.7059 13.0315C58.1137 13.2394 58.5388 13.5426 58.8771 13.8804C59.2067 14.2096 59.5363 14.6513 59.7619 15.0931C59.9614 15.4742 60.187 16.0372 60.2651 16.3491C60.3518 16.6522 60.4473 17.2239 60.482 17.6051C60.5167 17.9861 60.5167 18.4018 60.4733 18.5318C60.43 18.6618 60.3171 18.8091 60.2217 18.8611C60.1176 18.913 58.6515 18.9477 52.6744 18.9477L51.7115 18.0382L51.1563 18.5926L51.6595 19.1123C51.9283 19.398 52.1538 19.7011 52.1539 19.7878C52.1539 19.8744 52.2753 20.195 52.4228 20.5068C52.5963 20.862 52.8479 21.2172 53.1429 21.4857C53.3945 21.7196 53.7762 21.9707 54.019 22.0574C54.2619 22.144 54.7131 22.2393 55.0167 22.2739C55.3724 22.3086 55.7627 22.2825 56.0577 22.2132C56.3266 22.1525 56.7257 21.9966 56.9513 21.8667C57.1855 21.7281 57.4805 21.451 57.6453 21.2258C57.8014 21.0006 57.9923 20.7494 58.079 20.6628C58.2005 20.5329 58.374 20.4982 59.0333 20.4982C59.7099 20.4982 59.8748 20.5242 60.0743 20.6714C60.2131 20.7754 60.3084 20.9312 60.3085 21.0438C60.3085 21.1477 60.1523 21.5202 59.9615 21.8667C59.7706 22.2131 59.389 22.7156 59.1201 22.9928C58.8425 23.2699 58.3826 23.6164 58.0963 23.7723C57.8101 23.9196 57.2635 24.1276 56.8818 24.2229C56.4047 24.3441 55.9189 24.4048 55.3203 24.3961C54.8432 24.3961 54.2012 24.3355 53.8889 24.2662C53.5853 24.1882 53.0561 23.9976 52.7178 23.8331C52.3881 23.6772 51.8849 23.3566 51.5987 23.1227C51.3211 22.8975 50.9047 22.4558 50.6705 22.1526C50.4363 21.8408 50.1326 21.3124 49.9938 20.9832C49.855 20.6454 49.6728 20.0391 49.5948 19.6406C49.482 19.0949 49.456 18.6878 49.4994 18.0815C49.5254 17.6224 49.6295 16.9468 49.7249 16.5656C49.829 16.1845 50.0546 15.5955 50.2281 15.2663C50.4103 14.9285 50.8093 14.3914 51.1129 14.0623C51.4252 13.7331 51.911 13.3346 52.1973 13.1614C52.4836 12.9968 52.952 12.7891 53.2383 12.6938C53.5246 12.5985 54.019 12.4858 54.3227 12.4512ZM55.2856 14.5647C54.9299 14.5474 54.5135 14.5734 54.3747 14.6081C54.2359 14.6514 54.019 14.7207 53.8976 14.7727C53.7761 14.816 53.5159 14.9805 53.3078 15.1278C53.1083 15.275 52.8393 15.5434 52.7005 15.7167C52.5704 15.8986 52.4229 16.1758 52.3621 16.3491C52.2927 16.5656 52.2928 16.7042 52.3535 16.8255C52.4055 16.9207 52.4922 17.0246 52.5443 17.0593C52.5963 17.0939 53.7068 17.1287 54.9994 17.1287C56.4046 17.1287 57.4369 17.094 57.5411 17.042C57.6625 16.9814 57.7146 16.8687 57.7146 16.6695C57.7146 16.5222 57.6365 16.2364 57.5411 16.0459C57.4457 15.8553 57.2462 15.5435 57.0901 15.3616C56.9339 15.1797 56.6042 14.9284 56.37 14.8072C56.049 14.6426 55.7713 14.5821 55.2856 14.5647Z" fill="#D6FE51"/>
<path d="M74.8219 12.5464C75.1169 12.5031 75.594 12.4858 75.8802 12.5118C76.1665 12.5291 76.5829 12.5985 76.7911 12.6591C77.008 12.7197 77.381 12.8669 77.6152 12.9882C77.8581 13.1094 78.2139 13.3694 78.4221 13.5686C78.6216 13.7592 78.8992 14.1056 79.0293 14.3308C79.1595 14.556 79.333 14.9978 79.4197 15.3096C79.5585 15.812 79.5671 16.2971 79.5671 19.8572C79.5671 23.5032 79.5498 23.8502 79.4197 23.9889C79.2896 24.1188 79.116 24.1449 78.3526 24.1449C77.702 24.1449 77.3983 24.1102 77.2682 24.0236C77.1034 23.9023 77.0947 23.7723 77.0513 19.9699C77.0166 16.5398 76.9907 16.0113 76.8692 15.7861C76.7911 15.6388 76.6176 15.4136 76.4788 15.275C76.34 15.1364 76.1144 14.9631 75.967 14.8852C75.7761 14.7812 75.4811 14.7466 74.8392 14.7466C74.0845 14.7466 73.9196 14.7726 73.4946 14.9718C73.217 15.1017 72.8614 15.3789 72.6532 15.6214C72.445 15.8553 72.2193 16.2191 72.1499 16.4357C72.0458 16.7475 72.0198 17.4578 72.0198 20.247C72.0198 22.8282 71.9937 23.7204 71.907 23.885C71.8029 24.0929 71.7682 24.1015 70.8053 24.1188C69.9551 24.1361 69.7904 24.1188 69.6603 23.9889C69.5128 23.8503 69.504 23.5039 69.504 18.5146C69.504 14.019 69.5214 13.1528 69.6255 13.0142C69.7383 12.8583 69.8511 12.841 70.5017 12.841C71.2043 12.841 71.2651 12.8497 71.4212 13.0575C71.534 13.1961 71.6034 13.4646 71.6294 13.8111C71.6555 14.1056 71.6902 14.3568 71.7075 14.3568C71.7337 14.3567 71.9505 14.1488 72.2106 13.889C72.4622 13.6378 72.8353 13.326 73.0435 13.1961C73.2431 13.0748 73.6074 12.8929 73.8416 12.7977C74.0845 12.7024 74.5183 12.5897 74.8219 12.5464Z" fill="#D6FE51"/>
<path d="M63.2666 8.03357C63.7958 8.03357 64.2989 8.07689 64.3944 8.12019C64.5592 8.20681 64.5679 8.29344 64.5679 12.3213L63.8305 13.0575L64.3944 13.6206L65.3053 12.7024L66.2682 12.7283C66.9708 12.7456 67.2745 12.789 67.3786 12.8843C67.5001 12.9882 67.5261 13.1615 67.5174 13.7938C67.5174 14.4088 67.4828 14.6081 67.3614 14.7294C67.2312 14.8593 67.0576 14.8852 66.086 14.8765C65.0451 14.8679 64.9496 14.8852 64.7848 15.0584C64.6199 15.2316 64.6113 15.3616 64.6113 18.0728C64.6113 20.7234 64.6199 20.914 64.7848 21.2345C64.8802 21.425 65.0711 21.6589 65.2012 21.7542C65.3921 21.8928 65.609 21.9448 66.1555 21.9621C66.5459 21.9708 66.9536 22.0054 67.0577 22.0227C67.1705 22.0487 67.3179 22.1266 67.3873 22.1959C67.4827 22.2912 67.5174 22.5164 67.5174 23.0188C67.5174 23.6251 67.4914 23.7377 67.318 23.9023C67.1358 24.0755 67.0663 24.0843 65.9125 24.041C65.0017 24.015 64.5766 23.963 64.2209 23.8331C63.9606 23.7378 63.5703 23.5386 63.3534 23.3913C63.1365 23.2528 62.833 22.9409 62.6768 22.707C62.5207 22.4731 62.3298 22.092 62.2431 21.8494C62.1216 21.4683 62.0955 20.6974 62.0608 14.9892C62.0347 9.11639 62.0435 8.53594 62.1736 8.30206L62.3124 8.03357H63.2666Z" fill="#D6FE51"/>
<path d="M107.301 8.03357C108.221 8.03357 108.29 8.04222 108.412 8.22407C108.524 8.37999 108.55 8.76985 108.55 12.2346L107.761 13.0142L108.325 13.5772L109.192 12.6938L110.164 12.7197C110.988 12.7457 111.153 12.7717 111.318 12.9276C111.474 13.0662 111.5 13.1961 111.5 13.7505C111.5 14.2615 111.465 14.4434 111.144 14.8765L110.043 14.8679C109.201 14.8679 108.889 14.9025 108.542 15.1364V18.0121C108.542 20.8273 108.551 20.8966 108.741 21.2864C108.872 21.5376 109.036 21.7281 109.236 21.8234C109.461 21.936 109.748 21.9707 110.277 21.9707C110.884 21.9707 111.058 21.9968 111.231 22.1354C111.431 22.2913 111.448 22.3606 111.448 23.0016C111.448 23.5732 111.422 23.7205 111.274 23.8764C111.118 24.0409 111.023 24.0583 110.06 24.0496C109.487 24.0496 108.811 23.9976 108.542 23.9369C108.282 23.8676 107.891 23.7377 107.674 23.6338C107.466 23.5385 107.154 23.3219 106.989 23.166C106.833 23.0101 106.607 22.7503 106.495 22.5857C106.382 22.4125 106.234 22.066 106.156 21.8061C106.052 21.399 106.026 20.2729 106.017 14.8332C106 8.65767 106.009 8.33683 106.156 8.18956C106.295 8.05097 106.46 8.03358 107.301 8.03357Z" fill="#D6FE51"/>
<path d="M82.8289 12.7283C83.4622 12.7456 83.7485 12.789 83.8526 12.8843C83.9741 12.9882 84 13.1788 84 14.0276C83.9914 14.9803 83.9827 15.0498 83.8006 15.1797C83.6618 15.2663 83.3755 15.3096 82.803 15.3096C82.3607 15.3096 81.9096 15.2577 81.8054 15.2058C81.6926 15.1538 81.5798 15.0671 81.5451 15.0151C81.5104 14.9545 81.4843 14.5041 81.4843 14.0103C81.4843 13.43 81.5191 13.0489 81.5885 12.9623C81.6492 12.8843 81.7532 12.7976 81.8226 12.763C81.9007 12.737 82.3518 12.7196 82.8289 12.7283Z" fill="#D6FE51"/>
</svg>
