<svg width="220" height="50" viewBox="0 0 220 50" fill="none" xmlns="http://www.w3.org/2000/svg">
<g clip-path="url(#clip0_3096_5498)">
<path d="M217.53 7.91985C212.366 7.82553 190.856 7.48665 186.191 7.42726H186.16C185.274 7.42726 184.478 7.8954 184.032 8.67796C183.871 8.96094 183.763 9.26837 183.718 9.58279C183.658 9.97058 183.219 10.1453 182.919 9.89721C182.919 9.89721 182.912 9.89023 182.908 9.89023C180.947 8.26572 178.32 7.34341 175.508 7.298C173.16 7.27005 139.03 7.09188 129.006 7.03947C127.635 7.03249 126.662 5.70143 127.06 4.39134C127.231 3.83237 127.374 3.36074 127.419 3.21401C127.478 3.02536 127.517 2.82972 127.524 2.63058C127.558 1.48819 126.773 0.593832 125.772 0.384217C125.667 0.363256 125.584 0.342294 125.503 0.321333C125.28 0.268929 125.029 0.206045 124.638 0.157135C124.547 0.146654 124.457 0.139667 124.366 0.139667C124.108 0.139667 123.853 0.185084 123.616 0.268929C123.361 0.146654 123.086 0.0732894 122.803 0.0558215C122.37 0.027873 121.941 0.0104051 121.522 0.00341797C121.519 0.00341797 121.509 0.00341797 121.505 0.00341797C121.505 0.00341797 121.488 0.00341797 121.484 0.00341797C121.215 0.00341797 120.95 0.052328 120.703 0.146654C120.472 0.0663023 120.225 0.0243794 119.977 0.0243794H119.959C119.959 0.0243794 119.938 0.0243794 119.925 0.0243794H119.897C119.656 0.0348601 119.422 0.0488344 119.192 0.0628087C118.892 0.0837701 118.602 0.164122 118.34 0.293384C118.1 0.202552 117.842 0.157135 117.576 0.157135C117.479 0.157135 117.378 0.164122 117.28 0.178097C116.934 0.223513 116.708 0.282904 116.523 0.331814C116.456 0.349282 116.387 0.366749 116.299 0.387711C115.706 0.520467 115.186 0.894279 114.876 1.42181C114.565 1.94584 114.489 2.58167 114.66 3.16859L115.015 4.37038C115.015 4.37038 115.019 4.38785 115.022 4.39484C115.413 5.71192 114.429 7.03249 113.058 7.02899C105.278 7.01851 83.4329 6.99755 80.5265 7.01152C79.7799 7.01502 79.0577 7.32594 78.6145 7.91636C78.1994 8.47533 77.6795 8.47533 77.2783 8.01068C76.7793 7.43075 76.0815 7.03947 75.307 7.03947C73.1298 7.05345 72.0482 6.95912 69.8885 7.07441C68.1091 7.16873 67.9416 9.02732 67.0589 9.35571C65.911 9.78542 64.5154 7.05694 59.4494 7.15476C59.4494 7.15476 59.4424 7.15476 59.4389 7.15476C59.4354 7.15476 59.4319 7.15476 59.4284 7.15476C56.5884 7.17921 55.1649 7.19319 52.3248 7.22114C51.5502 7.22813 50.9048 7.64386 50.3744 8.20283C50.036 8.55918 49.3836 8.56966 49.073 8.24825C48.5427 7.69277 47.8937 7.27704 47.1192 7.27704C47.1157 7.27704 47.0948 7.27704 47.0913 7.27704C43.5429 7.31546 10.9381 7.78011 10.9381 7.78011C10.9311 7.78011 10.9276 7.78011 10.9206 7.78011C6.75125 7.91985 3.72278 10.6134 1.91547 15.7874C0.523353 19.7945 0.153517 24.5213 0 27.7284V27.8157C0.226786 33.1539 0.823408 47.3204 10.0728 47.4182V47.495C10.0728 48.1553 10.3066 48.7772 10.7287 49.2418C11.1753 49.7309 11.7824 49.9999 12.4383 49.9999C12.5116 49.9999 12.5884 49.9999 12.6616 49.9894C13.3769 49.9231 14.0468 49.5283 14.4969 48.9134C15.5401 47.4881 16.039 47.0444 17.3195 46.8417C17.6963 46.7824 37.0603 45.3255 39.2201 45.1823C40.0469 45.1299 40.8041 44.6583 41.2472 43.9246C41.6903 43.1875 41.8159 43.0792 42.2729 43.7849C42.7126 44.4591 43.4557 44.8644 44.2617 44.8644C44.3105 44.8644 44.3594 44.8644 44.4082 44.8609C46.5854 44.7316 47.646 44.6687 49.8092 44.55C50.2628 44.5255 52.3074 44.4137 52.3527 44.4137C55.1998 44.2635 69.8711 43.6277 69.9025 43.6277C72.0726 43.5473 77.3446 43.3656 77.7737 43.3656C77.7981 43.3656 77.8225 43.3656 77.847 43.3656C80.0206 43.3027 81.0813 43.2748 83.248 43.2189C84.0818 43.1979 84.8529 42.7647 85.3065 42.0625C85.7601 41.3603 85.8892 41.3114 86.3567 42.0171C86.8102 42.6984 87.5709 43.1071 88.3978 43.1071H88.4466C90.6237 43.0652 128.392 42.9848 139.306 43.2888C139.327 43.2888 139.351 43.2888 139.376 43.2888C140.241 43.2888 141.026 42.8486 141.473 42.1114C141.926 41.3638 141.863 41.7237 142.327 42.37C142.788 43.0128 143.528 43.4076 144.309 43.432C146.563 43.5019 172.982 44.7072 175.923 44.8818C175.934 44.8818 175.941 44.8818 175.951 44.8818C176.07 44.8853 176.188 44.8888 176.307 44.8888C179.398 44.8888 185.267 45.4862 186.136 45.5456C190.793 45.8705 195.514 46.2304 200.168 46.6147C200.235 46.6216 200.301 46.6216 200.364 46.6216C201.02 46.6216 201.718 46.4225 202.077 45.867C202.803 44.7456 204.432 44.9517 204.854 45.7587C205.283 46.5797 206.058 47.1142 206.927 47.1946C209.097 47.3867 210.154 47.4846 212.314 47.6872C212.387 47.6942 212.46 47.6977 212.53 47.6977C213.374 47.6977 214.132 47.2505 214.561 46.4994C214.986 45.7518 215.018 44.812 214.644 43.9945C214.529 43.7394 214.477 43.418 214.477 42.9464L214.47 17.6739L215.492 17.7088C215.97 17.7263 216.169 17.8137 216.288 17.887C216.647 18.1141 217.055 18.2399 217.467 18.2538C217.495 18.2538 217.523 18.2538 217.551 18.2538C218.897 18.2538 219.993 17.0765 219.993 15.6302V10.6134C219.993 9.15308 218.884 7.94431 217.523 7.91636L217.53 7.91985Z" fill="#0B094F"/>
<path d="M152.536 42.2721C151.996 42.2512 151.559 41.79 151.556 41.245C151.556 39.4353 151.556 38.5305 151.552 36.7208C151.552 36.1723 151.989 35.7426 152.526 35.7601C152.679 35.7636 152.833 35.809 152.969 35.8859C153.377 36.1199 153.866 36.2387 154.508 36.2597C156.242 36.3191 157.107 36.3505 158.841 36.4169C159.504 36.4413 160.059 36.2282 160.446 35.795C160.875 35.3164 161.053 34.6037 160.955 33.7897C160.603 30.9145 158.844 29.3529 156.821 27.7004C154.159 25.5204 151.866 22.8199 151.221 19.2879C150.68 16.3428 151.27 13.6213 152.913 11.6335C154.497 9.71202 156.905 8.66395 159.692 8.68841C162.215 8.71286 163.478 8.72334 166.004 8.7478C166.541 8.75478 166.981 9.20895 166.981 9.76443C166.981 11.602 166.981 12.5209 166.984 14.362C166.984 14.9174 166.548 15.3646 166.011 15.3541C165.857 15.3541 165.704 15.3087 165.568 15.2319C165.16 15.0013 164.671 14.8895 164.029 14.879C162.295 14.8511 161.43 14.8371 159.696 14.8091C158.876 14.7952 158.255 15.0502 157.906 15.5393C157.466 16.1542 157.445 17.1463 157.836 18.3237C158.618 20.6853 160.251 22.1072 161.971 23.4837C165.132 26.0165 167.389 29.4821 167.602 33.6744C167.734 36.2667 167.04 38.5445 165.498 40.1585C163.914 41.818 161.552 42.6529 158.844 42.5306C156.318 42.4188 155.055 42.3664 152.533 42.2686L152.536 42.2721Z" fill="url(#paint0_linear_3096_5498)"/>
<path d="M168.896 42.9777C168.551 42.9602 168.237 42.7611 168.059 42.4467C167.881 42.1287 167.874 41.7584 168.038 41.451C168.268 41.0213 168.387 40.5007 168.387 39.9103C168.376 30.5476 168.369 21.1848 168.359 11.8185C168.359 11.2281 168.24 10.7006 168.007 10.2534C167.839 9.93548 167.85 9.56516 168.027 9.25772C168.205 8.95378 168.516 8.77561 168.865 8.7791C171.614 8.80705 172.989 8.82452 175.735 8.85596C180.546 8.92583 184.831 12.0875 184.963 17.1567C185.036 19.8642 184.094 22.3936 182.011 23.9761C182.008 23.9796 181.994 23.9901 181.991 24.0111C181.991 24.0285 182.001 24.0425 182.008 24.0495C184.653 26.6487 185.567 30.6628 185.441 34.1948C185.26 39.1802 181.394 43.5611 176.23 43.3969C173.296 43.2222 171.83 43.1384 168.896 42.9812V42.9777ZM174.876 25.9465C174.852 25.9465 174.835 25.964 174.835 25.9884C174.838 29.8314 174.842 33.6708 174.845 37.5137C174.845 37.5382 174.866 37.5592 174.887 37.5592H174.929C177.368 37.6849 178.802 36.3504 178.976 33.8001C179.154 31.1974 178.488 28.6505 177.221 27.1797C176.548 26.4007 175.752 25.971 174.918 25.943C174.901 25.943 174.894 25.943 174.876 25.943V25.9465ZM174.866 14.6029C174.842 14.6029 174.824 14.6238 174.824 14.6483C174.824 16.9995 174.828 18.1768 174.831 20.528C174.831 20.5559 174.852 20.5734 174.873 20.5734C176.296 20.5105 177.357 20.0913 177.954 19.3611C178.421 18.7882 178.606 18.0196 178.501 17.0833C178.271 14.9872 176.15 14.6308 174.908 14.6064H174.866V14.6029Z" fill="url(#paint1_linear_3096_5498)"/>
<path d="M186.45 44.0574C186.104 44.0329 185.79 43.8233 185.612 43.4984C185.434 43.17 185.427 42.7892 185.591 42.4783C185.821 42.0381 185.94 41.5106 185.94 40.9027C185.93 31.3059 185.923 21.7055 185.912 12.1087C185.912 11.5008 185.794 10.9628 185.563 10.5051C185.399 10.1802 185.406 9.79942 185.584 9.485C185.762 9.17407 186.073 8.99241 186.422 8.9959C191.107 9.06228 195.793 9.13215 200.475 9.20901C201.013 9.21949 201.452 9.7016 201.452 10.285C201.452 12.224 201.452 13.1917 201.452 15.1306C201.452 15.7175 201.016 16.1822 200.479 16.1682C200.325 16.1647 200.172 16.1193 200.036 16.0354C199.628 15.7874 199.139 15.6651 198.501 15.6477C196.069 15.5813 194.855 15.5463 192.423 15.4835C192.398 15.4835 192.381 15.5044 192.381 15.5289C192.381 17.8451 192.381 19.005 192.384 21.3212C192.384 21.3457 192.405 21.3666 192.426 21.3701C194.139 21.433 194.994 21.4645 196.707 21.5273C197.346 21.5518 197.834 21.461 198.242 21.2444C198.378 21.171 198.532 21.1361 198.685 21.1396C199.223 21.1605 199.659 21.6531 199.662 22.2365C199.662 24.1545 199.662 25.1117 199.662 27.0262C199.662 27.6131 199.226 28.0673 198.689 28.0394C198.535 28.0324 198.382 27.9835 198.246 27.8961C197.838 27.6411 197.349 27.5083 196.711 27.4804C194.998 27.3965 194.143 27.3581 192.43 27.2778C192.405 27.2778 192.388 27.2952 192.388 27.3232C192.388 30.8936 192.395 34.4605 192.398 38.031C192.398 38.0554 192.419 38.0799 192.44 38.0799C194.872 38.2371 196.086 38.3175 198.515 38.4816C199.153 38.5271 199.641 38.4502 200.05 38.2441C200.186 38.1742 200.339 38.1428 200.493 38.1533C201.03 38.1917 201.466 38.6982 201.466 39.2852C201.466 41.2241 201.466 42.1918 201.466 44.1308C201.466 44.7142 201.03 45.1544 200.489 45.109C195.811 44.7247 191.128 44.3683 186.443 44.0434L186.45 44.0574Z" fill="url(#paint2_linear_3096_5498)"/>
<path d="M207.261 45.6993C206.916 45.6679 206.602 45.4478 206.424 45.1054C206.246 44.763 206.239 44.3683 206.403 44.0469C206.633 43.5962 206.752 43.0477 206.752 42.4189C206.748 33.5906 206.745 24.7658 206.738 15.9376C206.738 15.9131 206.717 15.8887 206.696 15.8887C205.684 15.8572 205.178 15.8433 204.167 15.8118C203.528 15.7943 203.04 15.8887 202.631 16.1123C202.495 16.1856 202.342 16.2241 202.188 16.2206C201.651 16.2031 201.215 15.714 201.211 15.1271C201.211 13.1881 201.211 12.2204 201.211 10.2815C201.211 9.69806 201.648 9.22993 202.188 9.24041C207.377 9.32775 212.565 9.42557 217.753 9.52339C218.29 9.53387 218.73 10.0334 218.73 10.6378V15.6546C218.73 16.2625 218.294 16.7411 217.756 16.7236C217.603 16.7167 217.449 16.6712 217.313 16.5839C216.905 16.3289 216.417 16.1996 215.778 16.1786C214.766 16.1437 214.26 16.1297 213.249 16.0948C213.224 16.0948 213.207 16.1158 213.207 16.1402C213.207 25.0803 213.21 34.0238 213.214 42.9639C213.214 43.6731 213.315 44.2215 213.531 44.6967C213.688 45.0425 213.678 45.4303 213.503 45.7378C213.325 46.0522 213.008 46.2234 212.662 46.1884C210.506 45.9858 209.428 45.888 207.268 45.6993H207.261Z" fill="url(#paint3_linear_3096_5498)"/>
<path d="M12.8046 48.4242C12.2638 48.4731 11.8242 48.0365 11.8242 47.4425C11.8242 46.7858 11.8242 46.4574 11.8242 45.8006C11.8242 45.7726 11.8032 45.7551 11.7823 45.7551C11.5451 45.7761 11.4264 45.7866 11.1857 45.8076C2.58875 46.5901 1.8735 33.1783 1.74789 27.7458C1.61531 22.0478 3.20281 9.63161 11.1996 9.34514C13.5373 9.30322 14.7096 9.28225 17.0472 9.24382C17.5845 9.23334 18.0242 9.70148 18.0242 10.2884C18.0242 12.2273 18.0242 13.1985 18.0242 15.1375C18.0242 15.7244 17.588 16.217 17.0472 16.231C16.8937 16.2345 16.7402 16.1995 16.6041 16.1227C16.1959 15.8991 15.7075 15.8048 15.069 15.8222C14.0362 15.8537 13.5198 15.8676 12.4906 15.8991C8.04208 16.7864 8.17815 24.109 8.20956 27.3825C8.24445 31.0018 8.17118 36.9304 11.7823 39.058C11.7998 39.058 11.8277 39.037 11.8277 39.0021C11.8277 35.4701 11.8277 33.7058 11.8312 30.1738C11.8312 30.1494 11.8102 30.1284 11.7893 30.1284C11.1403 30.1668 10.8159 30.1843 10.1669 30.2227C9.89824 30.2402 9.64005 30.1319 9.45862 29.9293C9.27371 29.7266 9.1795 29.4402 9.19346 29.1467C9.28068 27.3545 9.32604 26.4601 9.41675 24.6714C9.44467 24.0985 9.87382 23.6304 10.3937 23.6059C13.164 23.4766 14.5491 23.4172 17.3229 23.2985C17.8602 23.274 18.2998 23.7317 18.2998 24.3151C18.2963 30.9284 18.2928 37.5453 18.2858 44.1586C18.2858 44.7141 17.8846 45.2102 17.3717 45.2905C15.5819 45.57 14.7445 46.3421 13.5443 47.9771C13.3559 48.2356 13.0942 48.3928 12.8081 48.4207L12.8046 48.4242Z" fill="url(#paint4_linear_3096_5498)"/>
<path d="M19.7443 45.0775C19.3989 45.1055 19.0849 44.9413 18.907 44.6338C18.729 44.3264 18.7221 43.9351 18.886 43.5893C19.1163 43.1037 19.2349 42.5447 19.2349 41.9228C19.2419 32.0849 19.2489 22.247 19.2524 12.4091C19.2524 11.7873 19.1372 11.2388 18.9035 10.7776C18.7395 10.4492 18.7465 10.058 18.9244 9.72956C19.1024 9.40466 19.4164 9.20902 19.7618 9.20203C21.9215 9.16709 23.0031 9.14963 25.1628 9.11469C25.5117 9.1077 25.8257 9.29636 26.0071 9.61427C26.1816 9.9217 26.192 10.299 26.035 10.6204C25.8187 11.0606 25.7175 11.5846 25.714 12.2694C25.7071 20.895 25.7001 29.5172 25.6931 38.1428C25.6931 38.1672 25.714 38.1882 25.735 38.1847C27.6121 38.0624 28.5506 38.003 30.4277 37.8877C31.0662 37.8493 31.5547 37.7131 31.9629 37.458C32.0989 37.3742 32.2525 37.3218 32.406 37.3148C32.9433 37.2834 33.3794 37.7236 33.3794 38.2965C33.3794 40.1865 33.3794 41.1298 33.3759 43.0198C33.3759 43.5893 32.9363 44.0819 32.399 44.1203C28.1773 44.4172 23.9556 44.7386 19.7339 45.081L19.7443 45.0775Z" fill="url(#paint5_linear_3096_5498)"/>
<path d="M44.5931 43.3306C44.2652 43.3516 43.9651 43.1978 43.7872 42.9254C43.6057 42.6459 43.5778 42.2755 43.7139 41.9437C43.8883 41.5174 43.9407 41.0248 43.8814 40.3401C43.8081 39.4842 43.7697 39.0545 43.6964 38.1985C43.6964 38.1741 43.6755 38.1601 43.6546 38.1601C42.3322 38.23 41.6693 38.2649 40.347 38.3383C40.3261 38.3383 40.3051 38.3593 40.3051 38.3837C40.2284 39.2536 40.19 39.6868 40.1167 40.5567C40.0574 41.2519 40.1062 41.741 40.2807 42.1463C40.4168 42.4642 40.3889 42.8345 40.2074 43.1419C40.0295 43.4389 39.7294 43.6276 39.4015 43.6485C37.2383 43.7848 36.1602 43.8581 33.997 44.0049C33.6376 44.0293 33.3201 43.8546 33.1457 43.5367C32.9712 43.2188 32.9817 42.817 33.1701 42.4817C33.4422 42.003 33.6027 41.458 33.6551 40.8641C34.461 31.2498 35.267 21.6355 36.0764 12.0247C36.1043 11.3959 36.0206 10.8648 35.8217 10.4212C35.6822 10.1067 35.7031 9.73641 35.8845 9.43946C36.066 9.13901 36.373 8.95735 36.7079 8.95385C40.2528 8.90494 43.8011 8.86302 47.346 8.8211C47.6809 8.8176 47.9914 8.98879 48.1694 9.27876C48.3473 9.56872 48.3717 9.92856 48.2287 10.243C48.0298 10.6867 47.9461 11.2107 47.974 11.8465C48.7625 21.2023 49.551 30.5581 50.3395 39.9139C50.3884 40.4868 50.5524 41.0004 50.821 41.4371C51.0094 41.741 51.0164 42.1323 50.8454 42.4642C50.671 42.7961 50.3535 43.0057 49.9941 43.0232C47.8309 43.142 46.7493 43.2013 44.5861 43.3306H44.5931ZM42.0217 18.5961C42.0008 18.5961 41.9868 18.6031 41.9868 18.6066C41.9868 18.6066 41.9833 18.6171 41.9799 18.638C41.5926 23.2495 41.2053 27.8646 40.818 32.4761C40.818 32.4796 40.818 32.497 40.8285 32.511C40.8424 32.525 40.8564 32.525 40.8599 32.525C41.7775 32.4831 42.238 32.4621 43.1557 32.4202C43.1591 32.4202 43.1731 32.4202 43.1871 32.4027C43.201 32.3887 43.1975 32.3713 43.1975 32.3678C42.8172 27.7912 42.4404 23.2146 42.0636 18.6345C42.0636 18.6136 42.0566 18.6031 42.0566 18.6031C42.0566 18.6031 42.0427 18.5926 42.0217 18.5961Z" fill="url(#paint6_linear_3096_5498)"/>
<path d="M52.5444 42.8869C52.199 42.9044 51.885 42.7402 51.707 42.4432C51.5291 42.1463 51.5221 41.7725 51.6861 41.451C51.9198 40.9969 52.035 40.4659 52.0385 39.8754C52.0489 30.5197 52.0559 21.1639 52.0664 11.8116C52.0664 11.2212 51.9512 10.6971 51.7175 10.2569C51.5535 9.94252 51.5605 9.5722 51.7384 9.26127C51.9164 8.95384 52.2304 8.76868 52.5758 8.76518C55.4158 8.73724 56.8359 8.72326 59.6794 8.69531C67.5018 8.76868 68.9393 19.6232 69.1207 25.0592C69.3126 30.9074 67.603 42.1393 59.648 42.5445C56.8045 42.6738 55.3844 42.7437 52.5444 42.8904V42.8869ZM58.5071 36.9304C62.4009 35.4491 62.6416 28.4969 62.6556 25.2094C62.6695 22.184 62.5334 15.2982 58.5315 14.3654C58.5246 21.887 58.5176 29.4087 58.5106 36.9304H58.5071Z" fill="url(#paint7_linear_3096_5498)"/>
<path d="M70.1081 42.1183C69.7627 42.1323 69.4487 41.9646 69.2707 41.6711C69.0928 41.3776 69.0858 41.0108 69.2498 40.6964C69.4836 40.2527 69.5987 39.7357 69.6022 39.1522C69.6092 29.9676 69.6196 20.783 69.6266 11.5984C69.6266 11.0185 69.5115 10.5049 69.2777 10.0717C69.1137 9.76431 69.1207 9.39748 69.2987 9.09354C69.4766 8.79309 69.7906 8.61143 70.136 8.60793C72.2957 8.59396 73.3773 8.58348 75.5405 8.573C75.8894 8.573 76.2034 8.74768 76.3848 9.04812C76.5593 9.34158 76.5698 9.69443 76.4128 9.99139C76.1964 10.4036 76.0953 10.8962 76.0918 11.539C76.0848 20.6747 76.0778 29.8139 76.0708 38.9496C76.0708 39.5924 76.172 40.0815 76.3883 40.4833C76.5453 40.7767 76.5349 41.1296 76.3604 41.43C76.179 41.7375 75.865 41.9261 75.5161 41.9366C73.3529 42.003 72.2713 42.0414 70.1116 42.1183H70.1081Z" fill="url(#paint8_linear_3096_5498)"/>
<path d="M88.6698 41.6047C88.3418 41.6117 88.0417 41.4545 87.8638 41.1854C87.6789 40.9095 87.6545 40.5566 87.7905 40.2422C87.965 39.8404 88.0173 39.3688 87.958 38.712C87.8847 37.8875 87.8463 37.4753 87.7696 36.6508C87.7696 36.6298 87.7487 36.6124 87.7277 36.6124C86.4019 36.6368 85.7425 36.6473 84.4166 36.6752C84.3957 36.6752 84.3748 36.6927 84.3748 36.7172C84.298 37.5451 84.2596 37.9609 84.1864 38.7889C84.1271 39.4491 84.1759 39.9208 84.3538 40.3155C84.4899 40.623 84.462 40.9793 84.2806 41.2623C84.1026 41.5383 83.8026 41.7095 83.4746 41.7165C81.3114 41.7689 80.2298 41.7968 78.0631 41.8597C77.7038 41.8702 77.3863 41.692 77.2118 41.3846C77.0374 41.0771 77.0478 40.6929 77.2362 40.3819C77.5084 39.9347 77.6689 39.4247 77.7212 38.8622C78.5272 29.73 79.3331 20.5978 80.1391 11.4656C80.167 10.8682 80.0833 10.3617 79.8844 9.93545C79.7449 9.635 79.7658 9.28215 79.9472 8.99917C80.1286 8.71619 80.4357 8.545 80.7706 8.54151C84.319 8.52404 87.8638 8.50657 91.4121 8.49609C91.7471 8.49609 92.0576 8.66379 92.2355 8.94327C92.4135 9.22276 92.4379 9.57211 92.2948 9.87256C92.096 10.2953 92.0122 10.8019 92.0401 11.4167C92.8356 20.4546 93.6277 29.4925 94.4266 38.5303C94.479 39.0858 94.6395 39.5854 94.9116 40.0186C95.1 40.319 95.1105 40.6998 94.936 41.0108C94.7616 41.3252 94.4441 41.5138 94.0847 41.5173C91.9215 41.5488 90.8364 41.5662 88.6732 41.6082L88.6698 41.6047ZM86.0844 17.8204C86.0635 17.8204 86.0495 17.8274 86.0495 17.8309C86.0495 17.8309 86.046 17.8414 86.0425 17.8624C85.6552 22.2712 85.2715 26.6766 84.8842 31.0855C84.8842 31.089 84.8842 31.103 84.8946 31.117C84.9086 31.1309 84.9226 31.1309 84.926 31.1309C85.8471 31.117 86.3042 31.1065 87.2253 31.0925C87.2288 31.0925 87.2427 31.0925 87.2567 31.0785C87.2707 31.0646 87.2672 31.0506 87.2672 31.0471C86.8869 26.6522 86.5066 22.2573 86.1263 17.8624C86.1263 17.8449 86.1193 17.8344 86.1193 17.8309C86.1193 17.8309 86.1053 17.8239 86.0844 17.8239V17.8204Z" fill="url(#paint9_linear_3096_5498)"/>
<path d="M99.1195 41.4546C98.7741 41.4546 98.4601 41.2834 98.2821 40.9934C98.1042 40.7 98.0972 40.3401 98.2612 40.0327C98.495 39.603 98.6101 39.0964 98.6101 38.5235C98.6101 30.5092 98.6136 22.4984 98.6171 14.4842C98.6171 14.4597 98.5961 14.4423 98.5752 14.4423C97.5634 14.4458 97.0575 14.4493 96.0422 14.4528C95.4037 14.4528 94.9152 14.5576 94.5035 14.7777C94.3674 14.851 94.2139 14.8894 94.0604 14.8894C93.5231 14.8894 93.0835 14.4562 93.0835 13.9147C93.0835 12.133 93.0835 11.2457 93.0835 9.46393C93.0835 8.92592 93.5231 8.48922 94.0604 8.48922C99.2521 8.47525 104.444 8.46826 109.632 8.46826C110.169 8.46826 110.609 8.90496 110.609 9.43948C110.609 11.2142 110.609 12.1016 110.609 13.8763C110.609 14.4143 110.173 14.851 109.632 14.851C109.478 14.851 109.325 14.8126 109.189 14.7392C108.781 14.5226 108.292 14.4248 107.65 14.4248C106.638 14.4248 106.132 14.4248 105.117 14.4248C105.093 14.4248 105.075 14.4458 105.075 14.4667C105.075 22.4705 105.075 30.4743 105.075 38.4781C105.075 39.1139 105.176 39.596 105.393 40.0012C105.55 40.2947 105.539 40.6441 105.365 40.934C105.183 41.231 104.869 41.4092 104.52 41.4127C102.357 41.4231 101.276 41.4301 99.1125 41.4511L99.1195 41.4546Z" fill="url(#paint10_linear_3096_5498)"/>
<path d="M144.581 41.9472C144.267 41.9367 143.981 41.783 143.793 41.5245C143.608 41.266 143.555 40.9376 143.65 40.6406C143.726 40.3996 143.765 40.1271 143.765 39.8336C143.765 39.624 143.73 39.3969 143.695 39.1349C143.688 39.0965 143.688 39.079 143.681 39.0441C142.606 34.3836 141.528 29.7232 140.45 25.0628C140.447 25.0418 140.429 25.0279 140.408 25.0279C140.311 25.0279 140.262 25.0314 140.168 25.0348C140.143 25.0348 140.126 25.0523 140.126 25.0768C140.126 29.6708 140.133 34.2649 140.136 38.8589C140.136 39.5192 140.234 39.9943 140.447 40.4031C140.607 40.707 140.597 41.0599 140.422 41.3498C140.244 41.6468 139.927 41.8145 139.578 41.8075C137.418 41.7481 136.337 41.7236 134.177 41.6747C133.832 41.6677 133.518 41.4826 133.34 41.1821C133.162 40.8817 133.155 40.5184 133.319 40.2179C133.549 39.7917 133.668 39.2851 133.668 38.7122C133.664 29.6324 133.657 20.5526 133.654 11.4728C133.654 10.8999 133.535 10.3898 133.305 9.95659C133.141 9.64915 133.148 9.28931 133.326 8.99236C133.504 8.69541 133.814 8.52073 134.163 8.52422C137.097 8.5382 138.563 8.54518 141.497 8.56265C146.137 8.59759 150.732 11.3226 150.729 16.4686C150.729 16.5979 150.739 16.6852 150.75 16.776C150.764 16.8983 150.774 17.0206 150.778 17.1533C150.778 19.2041 149.944 21.1325 148.423 22.53C147.91 22.9981 147.341 23.3999 146.744 23.7248C146.723 23.7352 146.706 23.7562 146.713 23.7772C147.934 28.8708 149.152 33.9609 150.366 39.0546C150.513 39.7393 150.697 40.197 150.984 40.5987C151.203 40.9096 151.238 41.3044 151.071 41.6328C150.903 41.9612 150.572 42.1568 150.199 42.1429C147.955 42.0625 146.832 42.0241 144.588 41.9507L144.581 41.9472ZM140.161 14.1035C140.136 14.1035 140.119 14.1209 140.119 14.1454C140.119 16.4232 140.119 17.5621 140.122 19.8434C140.122 19.8679 140.143 19.8853 140.164 19.8888C140.356 19.8818 140.454 19.8783 140.646 19.8713C142.969 19.784 144.302 18.7429 144.302 17.0101C144.302 16.8354 144.302 16.6852 144.264 16.5C144.264 16.4861 144.26 16.4756 144.257 16.4616C144.023 14.4423 141.905 14.1209 140.663 14.107C140.461 14.107 140.36 14.1069 140.161 14.1035Z" fill="url(#paint11_linear_3096_5498)"/>
<path d="M125.109 41.5523C124.342 41.5419 123.543 40.9305 123.532 39.9243C123.508 36.5565 123.49 33.1852 123.511 29.8139C123.354 30.076 123.089 30.4218 122.653 30.9039C122.28 31.3162 121.763 31.8437 121.414 32.0359C121.341 32.0778 121.229 32.1372 121.076 32.1372C120.922 32.1372 120.811 32.0708 120.73 32.0254C120.381 31.8227 119.872 31.2917 119.502 30.8795C119.066 30.3904 118.801 30.041 118.644 29.7755C118.665 33.1363 118.651 36.5006 118.627 39.8615C118.62 40.8676 117.821 41.4615 117.049 41.458C116.564 41.458 116.114 41.2205 115.811 40.8117C113.913 38.2369 111.324 34.2648 110.832 32.9896C110.762 32.8114 110.727 32.6228 110.727 32.4306C110.727 31.7738 110.881 31.152 111.045 30.4952C111.314 29.4227 111.593 28.1859 111.272 26.495C111.233 26.2889 110.986 25.9955 110.769 25.7369C110.459 25.3701 110.138 24.9928 110.089 24.5561C110.04 24.1019 110.319 23.7701 110.542 23.5045C110.623 23.4102 110.787 23.2076 110.783 23.1517C110.434 19.0398 110.274 14.3374 112.866 10.7146C113.229 10.208 113.676 9.71542 114.154 9.25776C114.443 8.98177 114.817 8.83154 115.207 8.83154C115.957 8.83154 116.589 9.35907 116.746 10.1137C116.879 10.767 116.945 11.0919 117.077 11.7452C117.14 12.0596 117.398 12.2867 117.691 12.2867C117.716 12.2867 117.74 12.2867 117.765 12.2832C118.271 12.2203 118.525 12.1889 119.031 12.126C120.001 12.0037 120.654 11.9548 121.275 11.9583C121.889 11.9583 122.527 12.0107 123.487 12.133C123.989 12.1959 124.24 12.2308 124.743 12.2937C124.767 12.2937 124.792 12.2972 124.816 12.2972C125.109 12.2972 125.367 12.0736 125.43 11.7626C125.538 11.2421 125.591 10.9836 125.699 10.463C125.859 9.69096 126.491 9.16693 127.237 9.17042C127.649 9.17042 128.04 9.3416 128.333 9.64904C128.671 10.0019 128.996 10.3792 129.268 10.76C131.86 14.4073 131.707 19.1306 131.358 23.26C131.351 23.3299 131.518 23.5325 131.599 23.6303C131.822 23.8993 132.101 24.2382 132.052 24.6924C132.003 25.1326 131.682 25.5099 131.372 25.8732C131.152 26.1282 130.908 26.4217 130.873 26.6173C130.552 28.3222 130.831 29.5694 131.1 30.6524C131.264 31.3162 131.421 31.9415 131.417 32.6053C131.417 32.7975 131.382 32.9861 131.316 33.1608C130.824 34.4534 128.239 38.4011 126.341 40.934C126.041 41.3357 125.591 41.5628 125.102 41.5558L125.109 41.5523ZM113.32 23.1272C113.958 23.5744 114.743 24.088 115.504 24.5841C116.488 25.2269 117.416 25.8383 117.974 26.2645C118.358 26.5579 118.588 27.0086 118.606 27.5012C118.616 27.7457 118.623 28.0637 118.63 28.441C119.185 26.261 119.244 24.0076 118.961 23.6478C117.081 22.5333 114.998 21.4084 113.389 20.6293C113.379 20.797 113.376 20.9927 113.369 21.1604C113.365 21.2966 113.362 21.363 113.358 21.4992C113.348 21.7473 113.341 21.9639 113.33 22.1525C113.309 22.6032 113.295 22.9945 113.32 23.1342V23.1272ZM123.187 23.6722C122.908 24.0041 122.967 26.268 123.525 28.4724C123.532 28.0951 123.539 27.7772 123.546 27.5361C123.563 27.0435 123.794 26.5964 124.178 26.3064C124.732 25.8872 125.664 25.2863 126.648 24.6539C127.415 24.1613 128.207 23.6513 128.828 23.2181C128.856 23.0783 128.839 22.6836 128.818 22.2364C128.811 22.0442 128.8 21.8276 128.79 21.5796C128.787 21.4433 128.783 21.377 128.78 21.2407C128.776 21.0765 128.769 20.8774 128.759 20.7097C127.15 21.4783 125.064 22.5857 123.18 23.6792L123.187 23.6722Z" fill="url(#paint12_linear_3096_5498)"/>
<path d="M165.763 9.20184C166.046 9.20184 166.273 9.4429 166.273 9.73286C166.273 11.5705 166.273 12.4893 166.276 14.3269C166.276 14.6274 166.032 14.8509 165.77 14.8475C165.694 14.8475 165.62 14.8265 165.543 14.7846C165.034 14.4981 164.462 14.3828 163.789 14.3723C162.054 14.3444 161.189 14.3304 159.455 14.3059C157.243 14.2745 156.322 15.9444 157.156 18.4423C159.316 24.7552 166.583 25.985 166.897 33.6533C167.564 38.6736 163.262 42.1392 158.607 42.0205C156.081 41.9122 154.818 41.8597 152.296 41.7619C152.013 41.7514 151.786 41.5104 151.783 41.2274C151.783 39.4177 151.783 38.5129 151.779 36.7032C151.779 36.4063 152.024 36.1897 152.289 36.1967C152.365 36.1967 152.439 36.2211 152.516 36.263C153.025 36.553 153.597 36.6753 154.274 36.6997C156.008 36.7591 156.873 36.7906 158.607 36.857C160.313 36.9233 161.419 35.6028 161.186 33.7127C160.39 27.4942 152.606 25.6251 151.444 19.1795C150.638 14.2116 153.834 8.71973 159.455 9.13895C161.978 9.16341 163.241 9.17738 165.767 9.20184M165.763 8.24111C163.241 8.21665 161.978 8.20617 159.452 8.18521C156.524 8.16075 153.988 9.27171 152.313 11.3015C150.583 13.4011 149.944 16.2484 150.523 19.3367C151.179 22.9945 153.454 25.7858 156.291 28.0252C158.241 29.6742 159.923 31.11 160.254 33.7931C160.338 34.4674 160.198 35.0473 159.86 35.4281C159.563 35.76 159.131 35.9242 158.604 35.9032C156.87 35.8403 156.005 35.8089 154.27 35.7495C153.702 35.732 153.297 35.6342 152.952 35.4386C152.746 35.3233 152.519 35.2569 152.289 35.2499C151.493 35.2255 150.848 35.8613 150.848 36.6683C150.848 38.4745 150.848 39.3793 150.851 41.189C150.851 41.9925 151.5 42.6737 152.299 42.7052C154.825 42.803 156.088 42.8554 158.614 42.9672C161.451 43.093 163.935 42.2126 165.606 40.4588C167.215 38.7749 168.007 36.3399 167.836 33.6219C167.783 29.234 165.303 25.7194 162.03 23.0818C160.289 21.625 158.785 20.3778 158.049 18.1489C157.711 17.1288 157.714 16.2693 158.056 15.7872C158.381 15.3296 159.002 15.2422 159.466 15.2492C161.2 15.2772 162.065 15.2911 163.799 15.3226C164.368 15.3331 164.772 15.4239 165.118 15.616C165.324 15.7313 165.55 15.7942 165.781 15.7977C166.576 15.8117 167.222 15.1549 167.222 14.3339C167.222 12.4963 167.222 11.574 167.218 9.73636C167.218 8.91886 166.569 8.2446 165.77 8.23761L165.763 8.24111Z" fill="#0B094F"/>
<path d="M175.491 9.31366C180.04 9.38003 184.311 12.1469 184.255 17.1428C184.426 19.8153 183.397 22.0862 181.485 23.536C181.223 23.7351 181.209 24.1334 181.457 24.3675C184.042 26.8724 184.984 30.5755 184.73 34.0936C184.73 39.0195 180.906 43.0162 175.986 42.8624C173.052 42.6878 171.586 42.6074 168.652 42.4537C168.265 42.4327 168.021 41.996 168.206 41.6572C168.474 41.1541 168.61 40.5672 168.61 39.8894C168.6 30.5266 168.593 21.1604 168.582 11.7976C168.582 11.1233 168.446 10.5224 168.174 10.0054C167.989 9.65253 168.233 9.2333 168.621 9.2368C171.37 9.26824 172.745 9.28571 175.491 9.31715M174.632 21.0206C174.632 21.0206 174.66 21.0206 174.674 21.0206C177.347 20.9053 179.004 19.5603 178.725 17.003C178.491 14.9278 176.694 14.1243 174.667 14.0859C174.65 14.0859 174.643 14.0859 174.625 14.0859C174.343 14.0789 174.116 14.313 174.116 14.6064C174.116 16.9576 174.119 18.1314 174.123 20.4791C174.123 20.7726 174.353 21.0136 174.632 21.0241M174.65 37.9994C174.65 37.9994 174.674 37.9994 174.692 37.9994C177.455 38.1426 179.022 36.5461 179.203 33.8106C179.468 30.6769 178.439 25.95 174.678 25.419C174.66 25.419 174.653 25.419 174.636 25.419C174.353 25.4085 174.126 25.6391 174.126 25.9326C174.13 29.7685 174.133 33.608 174.137 37.4439C174.137 37.7374 174.367 37.9854 174.646 37.9994M175.491 8.34244C172.741 8.311 171.367 8.29703 168.621 8.26908C168.108 8.26558 167.644 8.5311 167.382 8.97827C167.12 9.42894 167.11 9.97743 167.354 10.4456C167.553 10.8264 167.647 11.2631 167.647 11.7801C167.658 21.1324 167.665 30.4882 167.675 39.8405C167.675 40.3575 167.581 40.7873 167.382 41.1576C167.138 41.6117 167.152 42.1602 167.414 42.6284C167.675 43.093 168.139 43.39 168.652 43.4144C171.586 43.5716 173.052 43.6555 175.986 43.8336C181.398 44.0118 185.675 39.6553 185.661 34.2054C185.926 30.5616 184.981 26.7256 182.441 24.0216C184.395 22.3447 185.365 19.8992 185.187 17.1008C185.229 11.6089 180.522 8.42629 175.491 8.34244ZM175.055 20.018C175.055 18.0406 175.055 17.0519 175.051 15.0711C176.29 15.1619 177.633 15.6091 177.8 17.0903C177.888 17.8869 177.738 18.5332 177.357 19.0013C176.904 19.5568 176.115 19.9027 175.058 20.018H175.055ZM175.072 37.0386C175.068 33.5066 175.065 29.9711 175.061 26.4391C175.759 26.5894 176.293 27.061 176.642 27.4593C177.825 28.8253 178.449 31.2218 178.275 33.6953C178.174 35.222 177.528 36.9932 175.075 37.0386H175.072Z" fill="#0B094F"/>
<path d="M200.235 9.684C200.517 9.6875 200.744 9.93904 200.744 10.2465C200.744 12.1819 200.744 13.1496 200.744 15.0851C200.744 15.403 200.5 15.6371 200.238 15.6301C200.165 15.6301 200.088 15.6056 200.015 15.5637C199.505 15.2563 198.933 15.1305 198.26 15.113C195.828 15.0466 194.614 15.0152 192.182 14.9558C191.899 14.9488 191.673 15.1864 191.673 15.4868C191.673 17.7996 191.673 18.9559 191.676 21.2722C191.676 21.5726 191.906 21.8242 192.186 21.8346C193.899 21.8975 194.753 21.929 196.467 21.9954C197.14 22.0198 197.712 21.9325 198.222 21.6635C198.295 21.625 198.372 21.6076 198.445 21.6111C198.71 21.6215 198.954 21.8696 198.954 22.1875C198.954 24.102 198.954 25.0592 198.954 26.9702C198.954 27.2881 198.71 27.5152 198.448 27.5012C198.375 27.4977 198.298 27.4733 198.225 27.4279C197.716 27.1099 197.143 26.9737 196.47 26.9423C194.757 26.8619 193.902 26.8235 192.189 26.7466C191.906 26.7326 191.68 26.9667 191.68 27.2672C191.68 30.8306 191.687 34.394 191.69 37.961C191.69 38.2614 191.92 38.5199 192.199 38.5374C194.631 38.6946 195.845 38.775 198.274 38.9427C198.947 38.9881 199.516 38.9217 200.029 38.6632C200.102 38.6248 200.179 38.6108 200.252 38.6178C200.517 38.6352 200.761 38.8938 200.761 39.2117C200.761 41.1471 200.761 42.1148 200.761 44.0503C200.761 44.3542 200.535 44.5848 200.252 44.5603C195.573 44.183 190.891 43.8337 186.205 43.5123C185.818 43.4843 185.577 43.0371 185.759 42.6878C186.027 42.1777 186.163 41.5733 186.163 40.8816C186.153 31.2813 186.146 21.6844 186.136 12.0841C186.136 11.3924 185.999 10.7775 185.727 10.243C185.542 9.87964 185.787 9.44994 186.174 9.45692C190.86 9.52679 195.545 9.60016 200.228 9.68051M200.231 8.67436C195.545 8.601 190.86 8.53462 186.177 8.47523C185.665 8.46824 185.204 8.74074 184.939 9.1984C184.677 9.65955 184.667 10.222 184.911 10.7006C185.11 11.0919 185.204 11.5391 185.204 12.0701C185.214 21.6565 185.221 31.2393 185.232 40.8257C185.232 41.3567 185.138 41.7969 184.939 42.1707C184.695 42.6319 184.709 43.1943 184.97 43.6765C185.232 44.1586 185.696 44.466 186.209 44.5009C190.895 44.8293 195.577 45.1857 200.256 45.5735C201.051 45.6398 201.697 44.99 201.697 44.1271C201.697 42.1882 201.697 41.217 201.697 39.2781C201.697 38.4116 201.048 37.6605 200.256 37.6081C200.025 37.5942 199.799 37.6396 199.593 37.7409C199.251 37.9156 198.843 37.9749 198.277 37.9365C196.016 37.7828 194.886 37.7094 192.625 37.5662C192.625 34.2997 192.618 31.0297 192.618 27.7597C194.16 27.8331 194.931 27.868 196.474 27.9449C197.042 27.9729 197.447 28.0812 197.792 28.2943C197.995 28.42 198.225 28.4934 198.455 28.5074C199.251 28.5493 199.896 27.8785 199.896 27.0156C199.896 25.0976 199.896 24.1404 199.896 22.2224C199.896 21.3595 199.247 20.6329 198.455 20.6014C198.225 20.5944 197.998 20.6468 197.792 20.7551C197.45 20.9403 197.042 21.0102 196.477 20.9892C194.935 20.9333 194.164 20.9054 192.622 20.853C192.622 18.8966 192.622 17.9184 192.618 15.9654C194.879 16.0248 196.009 16.0563 198.274 16.1227C198.843 16.1401 199.247 16.2379 199.593 16.4441C199.795 16.5663 200.025 16.6362 200.256 16.6432C201.051 16.6677 201.697 15.9829 201.697 15.1165C201.697 13.1776 201.697 12.2064 201.697 10.2674C201.697 9.40452 201.048 8.69183 200.252 8.67786L200.231 8.67436Z" fill="#0B094F"/>
<path d="M217.509 10.0124C217.791 10.0194 218.018 10.278 218.018 10.5959C218.018 12.5977 218.018 13.6003 218.018 15.6022C218.018 15.9306 217.774 16.1716 217.512 16.1611C217.439 16.1611 217.362 16.1367 217.289 16.0913C216.78 15.7733 216.207 15.6406 215.534 15.6196C214.522 15.5882 214.016 15.5707 213.004 15.5393C212.722 15.5288 212.495 15.7768 212.495 16.0878C212.495 25.0138 212.498 33.9399 212.502 42.866C212.502 43.6101 212.603 44.253 212.875 44.8434C213.053 45.2277 212.795 45.6469 212.418 45.6119C210.262 45.4128 209.18 45.3185 207.024 45.1298C206.637 45.0949 206.396 44.6268 206.578 44.2669C206.846 43.7394 206.982 43.1175 206.982 42.4014C206.979 33.5731 206.975 24.7448 206.972 15.9166C206.972 15.6091 206.742 15.3506 206.462 15.3436C205.451 15.3157 204.945 15.2982 203.933 15.2703C203.26 15.2528 202.687 15.3471 202.178 15.6266C202.105 15.665 202.028 15.6825 201.955 15.6825C201.69 15.6755 201.445 15.4275 201.445 15.1096C201.445 13.1706 201.445 12.2029 201.445 10.264C201.445 9.96004 201.672 9.71549 201.955 9.71899C207.143 9.81331 212.331 9.91113 217.519 10.0159M217.509 8.96787C212.321 8.87354 207.132 8.7862 201.944 8.70236C201.149 8.68838 200.5 9.38011 200.5 10.243C200.5 12.1785 200.5 13.1462 200.5 15.0816C200.5 15.948 201.149 16.6677 201.944 16.6922C202.174 16.6991 202.401 16.6432 202.607 16.5315C202.949 16.3428 203.357 16.2659 203.926 16.2834C204.77 16.3079 205.189 16.3218 206.033 16.3498C206.037 25.0069 206.04 33.6674 206.047 42.3245C206.047 42.8765 205.953 43.3306 205.754 43.7149C205.51 44.1901 205.524 44.7735 205.786 45.2766C206.047 45.7796 206.511 46.108 207.021 46.1535C209.177 46.3456 210.259 46.4434 212.415 46.646C212.921 46.695 213.395 46.4399 213.657 45.9823C213.919 45.5246 213.932 44.9447 213.699 44.4311C213.517 44.0329 213.437 43.5752 213.434 42.9464C213.434 34.16 213.43 25.3737 213.427 16.5873C214.267 16.6153 214.69 16.6293 215.534 16.6572C216.103 16.6782 216.507 16.7795 216.849 16.9961C217.052 17.1254 217.282 17.1952 217.512 17.2057C218.308 17.2337 218.953 16.528 218.953 15.6301V10.6133C218.953 9.71899 218.304 8.98184 217.509 8.96437V8.96787Z" fill="#0B094F"/>
<path d="M16.81 9.73631C17.0926 9.73281 17.3194 9.97387 17.3194 10.2813C17.3194 12.2237 17.3194 13.1949 17.3194 15.1374C17.3194 15.4553 17.0752 15.7033 16.81 15.7138C16.7367 15.7138 16.66 15.6998 16.5867 15.6579C16.0773 15.3784 15.5051 15.2841 14.8317 15.3016C13.799 15.3295 13.2826 15.347 12.2534 15.3784C7.34082 16.4335 7.68274 23.5639 7.5048 27.4068C7.51527 31.2672 7.5048 37.4089 11.402 39.5609C11.4509 39.5749 11.5032 39.5784 11.5521 39.5749C11.8207 39.5539 12.058 39.2884 12.058 38.9705C12.058 35.442 12.058 33.6743 12.0615 30.1458C12.0615 29.8348 11.8347 29.5973 11.5521 29.6147C10.9031 29.6532 10.5786 29.6706 9.92967 29.7091C9.63659 29.7265 9.40632 29.468 9.42027 29.1466C9.5075 27.3544 9.55286 26.46 9.64357 24.6713C9.65753 24.3709 9.88082 24.1263 10.153 24.1158C12.9232 23.9831 14.3084 23.9202 17.0822 23.7979C17.3648 23.784 17.5916 24.025 17.5916 24.329C17.5881 30.9528 17.5846 37.5801 17.5811 44.2039C17.5811 44.4939 17.3717 44.7524 17.1031 44.7943C15.0899 45.1052 14.1618 46.038 12.9512 47.687C12.843 47.8337 12.7034 47.9071 12.5674 47.9176C12.3057 47.942 12.0545 47.7464 12.0545 47.4075C12.0545 46.7507 12.0545 46.4223 12.0545 45.7655C12.0545 45.4546 11.8277 45.224 11.5451 45.252C11.3078 45.2729 11.1892 45.2834 10.952 45.3044C2.88534 46.0205 1.9468 32.986 1.98169 27.7177C2.26779 22.2887 3.12958 10.2359 10.9659 9.84111C13.3036 9.7957 14.4759 9.77473 16.8135 9.73281M10.9624 8.8175C2.42479 9.10047 1.33971 21.6878 1.04663 27.7736C1.29086 33.5764 2.00262 47.1734 10.9485 46.3315C11.0182 46.3245 11.0496 46.321 11.1194 46.3175C11.1194 46.7891 11.1194 47.0232 11.1194 47.4948C11.1194 48.3682 11.7684 49.018 12.5639 48.9447C12.9826 48.9062 13.3803 48.6652 13.6559 48.2914C14.748 46.7996 15.4528 46.073 17.1624 45.8039C17.9195 45.6852 18.5092 44.9515 18.5127 44.1305C18.5161 37.5172 18.5196 30.9039 18.5266 24.2905C18.5266 23.4276 17.8811 22.7534 17.0822 22.7848C14.3119 22.9001 12.9267 22.963 10.153 23.0887C9.38538 23.1237 8.75387 23.8154 8.712 24.6643C8.62478 26.4565 8.57942 27.3544 8.48871 29.1466C8.46777 29.5833 8.61082 30.006 8.88296 30.3065C9.15511 30.6069 9.53541 30.7641 9.92967 30.7397C10.4077 30.7117 10.6484 30.6977 11.1264 30.6663C11.1264 33.7127 11.1264 35.2359 11.1264 38.2823C8.49917 35.6761 8.39101 30.7641 8.43986 27.3509C8.46079 24.0704 8.24796 17.4466 12.2534 16.3985C13.2861 16.3671 13.8025 16.3496 14.8317 16.3182C15.4004 16.3007 15.8052 16.3776 16.1471 16.5662C16.353 16.678 16.5797 16.7339 16.81 16.7269C17.6055 16.7025 18.251 15.9758 18.2545 15.1094C18.2545 13.1705 18.2545 12.1993 18.2545 10.2603C18.2545 9.39743 17.609 8.7057 16.81 8.71618" fill="#0B094F"/>
<path d="M24.929 9.59669C25.3058 9.5897 25.564 10.0159 25.3861 10.3723C25.114 10.9242 25.0128 11.5391 25.0128 12.2588C25.0058 20.8949 24.9988 29.531 24.9918 38.1706C24.9918 38.4711 25.2186 38.7016 25.5012 38.6842C27.3783 38.5584 28.3169 38.499 30.194 38.3802C30.8673 38.3383 31.4395 38.1951 31.9489 37.8772C32.0222 37.8317 32.099 37.8073 32.1722 37.8038C32.4374 37.7863 32.6781 38.0064 32.6781 38.3173C32.6781 40.2109 32.6781 41.1541 32.6747 43.0476C32.6747 43.3446 32.4444 43.6031 32.1653 43.6241C27.9435 43.9175 23.7218 44.2355 19.5001 44.5778C19.1128 44.6093 18.8721 44.1831 19.0535 43.7988C19.3222 43.2328 19.4583 42.597 19.4583 41.8878C19.4652 32.0499 19.4722 22.2155 19.4757 12.3776C19.4757 11.6684 19.3431 11.0465 19.071 10.5085C18.8895 10.1417 19.1303 9.69451 19.5176 9.68752C21.6773 9.64909 22.7589 9.63162 24.9186 9.59669M24.929 8.59403C22.7693 8.62547 21.6877 8.64294 19.528 8.67438C19.0151 8.68137 18.5511 8.97483 18.2894 9.45345C18.0243 9.93556 18.0138 10.5155 18.258 11.0011C18.4569 11.3959 18.5511 11.85 18.5511 12.3985C18.5441 22.2504 18.5372 32.1058 18.5337 41.9576C18.5337 42.5026 18.436 42.9708 18.2406 43.383C17.9964 43.8931 18.0068 44.473 18.272 44.9272C18.5337 45.3813 18.9977 45.6259 19.5071 45.584C23.7253 45.2346 27.947 44.9097 32.1722 44.6058C32.9677 44.5499 33.0759 43.8547 33.0759 43.0127C33.0759 41.1227 33.6202 40.1445 33.6202 38.258C33.6202 37.4125 32.9747 36.7627 32.1792 36.8116C31.9489 36.8256 31.7222 36.899 31.5163 37.0247C31.1744 37.2378 30.7662 37.3496 30.1975 37.3846C28.4878 37.4894 27.6365 37.5418 25.9269 37.6536C25.9339 29.1817 25.9409 20.7097 25.9478 12.2378C25.9478 11.6299 26.0316 11.1932 26.213 10.8229C26.4502 10.3443 26.4328 9.78534 26.1746 9.32768C25.9129 8.86653 25.4384 8.58355 24.9325 8.59403H24.929Z" fill="#0B094F"/>
<path d="M47.1087 9.28217C47.4785 9.27868 47.7262 9.67345 47.5692 10.0228C47.332 10.5538 47.2412 11.1652 47.2692 11.8569C48.0577 21.2302 48.8462 30.6034 49.6382 39.9767C49.6975 40.637 49.8824 41.2134 50.1895 41.7095C50.4023 42.0519 50.1615 42.5165 49.7603 42.541C47.5971 42.6563 46.5155 42.7192 44.3523 42.8449C43.979 42.8659 43.7487 42.4781 43.9023 42.1148C44.129 41.5698 44.1709 40.9724 44.1081 40.2702C44.0348 39.4142 43.9965 38.9845 43.9232 38.1286C43.8988 37.8561 43.679 37.657 43.4138 37.6709C42.0915 37.7408 41.4285 37.7757 40.1062 37.8491C39.841 37.8631 39.6212 38.0867 39.5968 38.3627C39.52 39.2326 39.4817 39.6693 39.4084 40.5392C39.3456 41.2519 39.3875 41.8493 39.6108 42.3698C39.7608 42.7192 39.5305 43.1349 39.1572 43.1593C36.994 43.2956 35.9159 43.369 33.7527 43.5157C33.3515 43.5436 33.1142 43.093 33.3235 42.7192C33.6306 42.1776 33.819 41.5628 33.8783 40.8815C34.6843 31.2672 35.4902 21.6564 36.2997 12.0421C36.3311 11.3364 36.2404 10.718 36.0031 10.187C35.8461 9.83416 36.0938 9.4289 36.4672 9.42192C40.012 9.37301 43.5603 9.3241 47.1052 9.28217M40.6156 33.0035C41.5332 32.9616 41.9938 32.9372 42.9114 32.8952C43.2114 32.8813 43.4452 32.6053 43.4208 32.2943C43.0405 27.7178 42.6636 23.1412 42.2868 18.5646C42.2589 18.2397 42.0182 18.086 41.7774 18.093C41.5367 18.0999 41.296 18.2676 41.268 18.5925C40.8808 23.211 40.4935 27.8295 40.1062 32.448C40.0783 32.7625 40.3155 33.0175 40.6156 33.0035ZM47.1087 8.31445C43.5638 8.35288 40.0155 8.39481 36.4706 8.44022C35.9752 8.44721 35.5181 8.71621 35.253 9.1599C34.9878 9.60358 34.9529 10.1486 35.1623 10.6167C35.3262 10.9835 35.396 11.4342 35.3716 11.9932C34.5621 21.6145 33.7562 31.2323 32.9502 40.8536C32.9049 41.3671 32.9084 43.5157 32.6851 44.0572C32.9398 44.5218 33.2328 44.5393 33.7527 44.5009C35.9159 44.3507 36.994 44.2773 39.1572 44.1375C39.6422 44.1061 40.0888 43.8231 40.3539 43.3829C40.6261 42.9323 40.6644 42.3873 40.4656 41.9226C40.3225 41.5942 40.2841 41.1785 40.3365 40.5706C40.3993 39.8614 40.4307 39.5086 40.49 38.7994C41.5018 38.7435 42.0112 38.7155 43.023 38.6596C43.0823 39.3583 43.1137 39.7077 43.173 40.4064C43.2254 41.0038 43.1835 41.423 43.0405 41.7689C42.8381 42.258 42.88 42.796 43.1486 43.2117C43.4138 43.617 43.8604 43.8406 44.3454 43.8126C46.5085 43.6834 47.5901 43.6205 49.7533 43.5017C50.2767 43.4738 50.7582 43.1558 51.0129 42.6737C51.2676 42.1881 51.2571 41.6082 50.978 41.161C50.7477 40.7872 50.6081 40.3435 50.5628 39.8439C49.7708 30.4916 48.9823 21.1359 48.1972 11.7801C48.1763 11.2316 48.2461 10.7879 48.4101 10.4211C48.6194 9.95643 48.588 9.42192 48.3228 8.9957C48.0577 8.56599 47.6006 8.31096 47.1052 8.31795L47.1087 8.31445ZM41.0796 32.0079C41.3588 28.696 41.4948 27.04 41.774 23.7351C42.0461 27.0225 42.1822 28.6645 42.4508 31.945C41.903 31.9694 41.6274 31.9834 41.0796 32.0079Z" fill="#0B094F"/>
<path d="M59.4387 9.14588C66.6889 9.22624 68.4474 19.7454 68.4125 25.0486C68.1229 30.6838 67.2472 41.5977 59.4073 42.0553C56.5638 42.1846 55.1438 42.2545 52.3037 42.4012C51.9164 42.4222 51.6757 42.0099 51.8571 41.6501C52.1292 41.1191 52.2618 40.5182 52.2653 39.8439C52.2758 30.4881 52.2828 21.1358 52.2932 11.78C52.2932 11.1058 52.1606 10.5119 51.8885 9.99832C51.7071 9.64896 51.9478 9.22274 52.3351 9.21925C55.1752 9.18781 56.5952 9.17383 59.4387 9.14588ZM57.7989 37.4229C57.928 37.4159 57.9908 37.4159 58.1199 37.4089C62.5684 36.4272 62.9871 28.654 62.8789 25.1814C63.015 21.7297 62.6626 14.5539 58.1408 13.8657C58.0117 13.8657 57.9489 13.8657 57.8198 13.8692C57.8129 21.7193 57.8059 29.5693 57.7954 37.4194M59.4387 8.19563C56.5987 8.22009 55.1786 8.23406 52.3351 8.26201C51.8222 8.2655 51.3582 8.5415 51.0965 8.99566C50.8313 9.45332 50.8209 10.0018 51.0651 10.4665C51.2605 10.8403 51.3582 11.277 51.3582 11.794C51.3477 21.1603 51.3407 30.5231 51.3303 39.8893C51.3303 40.4064 51.2326 40.8501 51.0337 41.2378C50.7895 41.7165 50.7999 42.2684 51.0616 42.7051C51.3233 43.1453 51.7873 43.3899 52.3002 43.3619C55.1403 43.2117 56.5638 43.1418 59.4038 43.0091C67.6624 42.5899 69.3859 31.3301 69.3441 25.0277C68.9882 19.1724 67.5716 8.25852 59.4353 8.19214L59.4387 8.19563ZM58.734 36.3049C58.7409 29.171 58.7479 22.0372 58.7549 14.9033C61.9892 16.713 61.9962 22.0337 61.9473 25.2058C61.7415 28.6959 61.9857 33.9572 58.734 36.3049Z" fill="#0B094F"/>
<path d="M75.2998 9.01658C75.6766 9.01658 75.9348 9.41485 75.7569 9.75023C75.4847 10.2638 75.3836 10.8402 75.3836 11.518C75.3766 20.6607 75.3696 29.8033 75.3626 38.946C75.3626 39.6238 75.4638 40.1932 75.7325 40.6998C75.9104 41.0282 75.6487 41.4404 75.2719 41.4509C73.1087 41.5173 72.0271 41.5557 69.8674 41.6326C69.4801 41.6465 69.2394 41.2378 69.4208 40.8884C69.693 40.3714 69.8256 39.7845 69.829 39.1207C69.836 29.9361 69.8465 20.7515 69.8535 11.5704C69.8535 10.9066 69.7209 10.3232 69.4487 9.8201C69.2673 9.47773 69.5081 9.05851 69.8953 9.05851C72.055 9.04104 73.1366 9.03405 75.2998 9.02008M75.2998 8.07681C73.1401 8.09079 72.0585 8.09777 69.8953 8.11175C69.3824 8.11524 68.9184 8.38425 68.6567 8.83142C68.3916 9.2786 68.3811 9.8201 68.6253 10.2743C68.8242 10.6446 68.9184 11.0708 68.9184 11.5774C68.9114 20.769 68.901 29.9605 68.894 39.1521C68.894 39.6622 68.7963 40.0919 68.5974 40.4692C68.3532 40.9374 68.3637 41.4754 68.6253 41.9121C68.887 42.3453 69.351 42.5933 69.8639 42.5758C72.0271 42.4955 73.1087 42.4605 75.2684 42.3907C75.7743 42.3732 76.2523 42.0902 76.514 41.6431C76.7757 41.1994 76.7896 40.6753 76.5559 40.2351C76.3744 39.8963 76.2942 39.4875 76.2942 38.9181C76.3012 29.7824 76.3081 20.6467 76.3151 11.5075C76.3151 10.938 76.3989 10.5293 76.5803 10.1799C76.8175 9.73276 76.8001 9.20873 76.5419 8.77203C76.2802 8.33883 75.8057 8.06982 75.2998 8.06982V8.07681Z" fill="#0B094F"/>
<path d="M91.168 8.9362C91.5378 8.9362 91.7855 9.317 91.6285 9.65238C91.3913 10.159 91.3006 10.7494 91.332 11.4131C92.1275 20.4615 92.923 29.5064 93.7184 38.5547C93.7778 39.194 93.9662 39.7565 94.2697 40.2456C94.4825 40.5845 94.2418 41.0247 93.8406 41.0317C91.6774 41.0631 90.5923 41.0806 88.4291 41.1225C88.0558 41.1295 87.8255 40.7487 87.9755 40.4063C88.2023 39.8927 88.2442 39.3198 88.1814 38.6455C88.1046 37.8211 88.0697 37.4088 87.993 36.5843C87.9686 36.3223 87.7487 36.1267 87.4836 36.1302C86.1612 36.1546 85.4983 36.1651 84.1725 36.1931C83.9073 36.2 83.6875 36.4027 83.6631 36.6682C83.5863 37.4962 83.548 37.9119 83.4747 38.7434C83.4119 39.4211 83.4538 39.9941 83.6771 40.5006C83.8271 40.8395 83.5968 41.2308 83.2235 41.2378C81.0603 41.2902 79.9752 41.3181 77.812 41.381C77.4108 41.3915 77.17 40.9583 77.3829 40.6089C77.6899 40.1024 77.8783 39.5294 77.9376 38.8831C78.7436 29.7509 79.5496 20.6187 80.3555 11.4865C80.3869 10.8157 80.2962 10.2253 80.059 9.71527C79.9019 9.37989 80.1497 8.9921 80.523 8.9921C84.0713 8.97114 87.6162 8.95367 91.1645 8.94319M84.6854 31.5746C85.6065 31.5571 86.0635 31.5501 86.9846 31.5361C87.2847 31.5326 87.5185 31.2706 87.494 30.9737C87.1137 26.5787 86.7334 22.1838 86.3531 17.7889C86.3252 17.478 86.0845 17.3243 85.8437 17.3278C85.603 17.3278 85.3623 17.4885 85.3343 17.7994C84.9471 22.2083 84.5633 26.6172 84.176 31.0296C84.1516 31.3265 84.3853 31.5815 84.6854 31.5746ZM91.168 8.00342C87.6196 8.0139 84.0748 8.02787 80.5265 8.04883C80.031 8.04883 79.574 8.30387 79.3088 8.72659C79.0436 9.14582 79.0088 9.66636 79.2181 10.1135C79.3821 10.4664 79.4519 10.8961 79.4274 11.4271C78.6215 20.5593 77.8155 29.688 77.013 38.8202C76.9677 39.3058 76.8281 39.7495 76.5944 40.1338C76.3152 40.5915 76.3013 41.1574 76.5595 41.6116C76.8142 42.0623 77.2956 42.3313 77.819 42.3138C79.9822 42.2509 81.0638 42.2195 83.2305 42.1671C83.7154 42.1566 84.1655 41.9016 84.4307 41.4928C84.7028 41.0736 84.7412 40.553 84.5423 40.0989C84.3993 39.781 84.3609 39.3792 84.4132 38.8028C84.476 38.1285 84.5074 37.7896 84.5668 37.1154C85.5821 37.0944 86.088 37.0839 87.1033 37.0664C87.1661 37.7372 87.194 38.0726 87.2568 38.7469C87.3091 39.3198 87.2673 39.7216 87.1277 40.0465C86.9253 40.5076 86.9672 41.0247 87.2359 41.4334C87.501 41.8317 87.9476 42.0658 88.4326 42.0553C90.5958 42.0133 91.6809 41.9924 93.8441 41.9609C94.3674 41.954 94.8489 41.664 95.1036 41.2098C95.3583 40.7487 95.3478 40.1897 95.0687 39.746C94.8349 39.3757 94.6954 38.9425 94.6535 38.4604C93.858 29.4225 93.0625 20.3881 92.2705 11.3503C92.2496 10.8227 92.3194 10.393 92.4833 10.0437C92.6927 9.59649 92.6578 9.08293 92.3926 8.6672C92.1275 8.25146 91.6704 8.00342 91.175 8.00691L91.168 8.00342ZM85.1494 30.6313C85.4251 27.4696 85.5646 25.8905 85.8403 22.7288C86.1124 25.88 86.2485 27.4556 86.5206 30.6068C85.9728 30.6138 85.6972 30.6208 85.1459 30.6278L85.1494 30.6313Z" fill="#0B094F"/>
<path d="M109.398 8.90138C109.681 8.90138 109.907 9.12846 109.907 9.40795V13.8448C109.907 14.1348 109.663 14.3548 109.398 14.3548C109.321 14.3548 109.248 14.3374 109.171 14.299C108.662 14.0299 108.09 13.9286 107.416 13.9286C106.404 13.9286 105.899 13.9286 104.883 13.9286C104.601 13.9286 104.374 14.1557 104.374 14.4352C104.374 22.439 104.374 30.4427 104.374 38.45C104.374 39.1173 104.475 39.6867 104.747 40.1898C104.925 40.5182 104.663 40.9165 104.287 40.92C102.123 40.9305 101.042 40.9374 98.8786 40.9619C98.4913 40.9654 98.2471 40.5601 98.432 40.2178C98.7042 39.7182 98.8368 39.1417 98.8368 38.4884C98.8368 30.4742 98.8402 22.4634 98.8437 14.4492C98.8437 14.1697 98.617 13.9426 98.3343 13.9426C97.3225 13.9461 96.8166 13.9496 95.8013 13.9531C95.1279 13.9531 94.5557 14.0614 94.0463 14.3304C93.9731 14.3688 93.8963 14.3863 93.8196 14.3863C93.5544 14.3863 93.3102 14.1697 93.3102 13.8762C93.3102 12.0945 93.3102 11.2036 93.3102 9.42542C93.3102 9.14593 93.5404 8.91536 93.8196 8.91536C99.0112 8.90138 104.203 8.8944 109.391 8.8909M109.398 7.97559C104.206 7.97559 99.0147 7.98607 93.8265 7.99655C93.031 7.99655 92.3821 8.64635 92.3821 9.43939C92.3821 11.2211 92.3821 12.112 92.3821 13.8937C92.3821 14.6902 93.0276 15.333 93.823 15.3296C94.0533 15.3296 94.2801 15.2702 94.486 15.1619C94.8314 14.9802 95.2361 14.8964 95.8048 14.8929C96.6491 14.8894 97.0713 14.8859 97.9122 14.8824C97.9122 22.7569 97.9087 30.6314 97.9052 38.5059C97.9052 39.0055 97.8075 39.4282 97.6121 39.795C97.3679 40.2492 97.3783 40.7767 97.6435 41.2134C97.9052 41.6466 98.3692 41.9017 98.8821 41.8982C101.045 41.8772 102.127 41.8667 104.29 41.8562C104.796 41.8562 105.274 41.5838 105.536 41.1505C105.797 40.7208 105.811 40.2003 105.578 39.7601C105.396 39.4212 105.312 39.016 105.312 38.4535C105.312 30.5895 105.312 22.7254 105.312 14.8649C106.157 14.8649 106.579 14.8649 107.42 14.8649C107.988 14.8649 108.393 14.9453 108.739 15.1269C108.941 15.2352 109.171 15.2911 109.402 15.2911C110.197 15.2911 110.846 14.6448 110.846 13.8518C110.846 12.077 110.846 11.1897 110.846 9.41494C110.846 8.62539 110.197 7.98257 109.402 7.98257L109.398 7.97559Z" fill="#0B094F"/>
<path d="M141.249 8.99563C145.956 9.02707 149.693 11.532 150.014 16.4544C150.014 16.6885 150.059 16.8736 150.059 17.1077C150.059 18.9244 149.372 20.727 147.85 22.1384C147.386 22.5577 146.86 22.9455 146.266 23.2704C146.064 23.3822 145.956 23.6092 146.008 23.8398C147.229 28.9265 148.447 34.0166 149.661 39.1067C149.804 39.781 150.003 40.326 150.359 40.8221C150.607 41.1714 150.37 41.6431 149.951 41.6291C147.707 41.5487 146.584 41.5103 144.341 41.4439C143.995 41.4334 143.751 41.0911 143.856 40.7627C143.95 40.4657 143.992 40.1478 143.992 39.8124C143.992 39.5399 143.946 39.2674 143.901 38.953C143.901 38.939 143.897 38.9251 143.894 38.9111C142.819 34.2507 141.745 29.5937 140.663 24.9333C140.611 24.6992 140.401 24.5315 140.164 24.528C140.157 24.528 140.15 24.528 140.143 24.528C140.046 24.528 140 24.5281 139.903 24.535C139.63 24.542 139.414 24.7656 139.414 25.0381C139.414 29.6287 139.421 34.2192 139.425 38.8133C139.425 39.512 139.526 40.0744 139.791 40.5775C139.969 40.9164 139.714 41.3147 139.334 41.3042C137.174 41.2483 136.092 41.2203 133.933 41.1749C133.546 41.1679 133.301 40.7522 133.486 40.4133C133.755 39.9172 133.891 39.3443 133.891 38.6875C133.887 29.6077 133.88 20.5279 133.877 11.4446C133.877 10.7878 133.741 10.2114 133.472 9.70832C133.287 9.36595 133.532 8.9572 133.919 8.96069C136.853 8.97467 138.318 8.98165 141.253 8.99912M139.923 20.3253C139.923 20.3253 139.941 20.3253 139.948 20.3253C140.14 20.3183 140.237 20.3148 140.429 20.3113C143.151 20.21 144.532 18.8859 144.529 16.9889C144.529 16.8038 144.529 16.6186 144.484 16.3845C144.25 14.3897 142.453 13.6316 140.426 13.6141C140.223 13.6141 140.122 13.6141 139.923 13.6106C139.641 13.6106 139.414 13.8342 139.414 14.1172C139.414 16.395 139.414 17.5339 139.418 19.8117C139.418 20.0947 139.648 20.3253 139.927 20.3288M141.249 8.05935C138.315 8.04538 136.85 8.03839 133.915 8.02441C133.402 8.02441 132.938 8.28294 132.677 8.71963C132.415 9.15983 132.401 9.69085 132.645 10.145C132.844 10.5118 132.938 10.9346 132.938 11.4376C132.942 20.5139 132.949 29.5902 132.952 38.6665C132.952 39.1696 132.858 39.5888 132.659 39.9522C132.415 40.3993 132.426 40.9304 132.691 41.3776C132.952 41.8212 133.416 42.0937 133.929 42.1042C136.089 42.1531 137.171 42.1776 139.33 42.237C139.843 42.2509 140.311 41.9994 140.576 41.5627C140.838 41.133 140.852 40.609 140.611 40.1548C140.433 39.8194 140.356 39.4107 140.356 38.8342C140.356 35.1276 140.353 31.4209 140.349 27.7142C141.225 31.5012 142.101 35.2883 142.976 39.0788C142.98 39.1102 142.983 39.1277 142.987 39.1591C143.025 39.4107 143.053 39.6098 143.053 39.788C143.053 40.036 143.022 40.2596 142.959 40.4552C142.823 40.8919 142.9 41.3775 143.172 41.7584C143.444 42.1357 143.876 42.3697 144.337 42.3837C146.58 42.4536 147.704 42.492 149.947 42.5758C150.495 42.5968 150.991 42.3068 151.235 41.8212C151.483 41.3356 151.434 40.7487 151.106 40.291C150.862 39.9487 150.701 39.5434 150.572 38.939C150.572 38.9355 150.572 38.932 150.572 38.9286V38.9181C149.379 33.9293 148.185 28.9369 146.989 23.9481C147.516 23.6337 148.018 23.2669 148.479 22.8476C150.104 21.3384 150.991 19.3052 150.991 17.1252C150.991 16.9575 150.973 16.8107 150.963 16.6955C150.952 16.6081 150.945 16.5383 150.945 16.4719V16.4404C150.945 16.4404 150.945 16.423 150.945 16.409C150.977 10.994 146.102 8.11175 141.249 8.06284V8.05935ZM140.342 14.5469C140.374 14.5469 140.391 14.5469 140.422 14.5469C141.748 14.5609 143.371 14.9068 143.552 16.4789C143.552 16.4928 143.552 16.5033 143.556 16.5173C143.556 16.5313 143.559 16.5382 143.562 16.5557C143.59 16.6955 143.59 16.8142 143.59 16.9749C143.59 17.8274 143.175 19.2667 140.377 19.375C140.363 19.375 140.36 19.375 140.346 19.375C140.346 17.4431 140.346 16.4789 140.346 14.5469H140.342Z" fill="#0B094F"/>
<path d="M114.974 9.27173C115.462 9.27173 115.936 9.6141 116.055 10.1835C116.076 10.2884 116.1 10.3967 116.121 10.505C116.226 11.029 116.282 11.291 116.387 11.815C116.495 12.3531 116.948 12.7269 117.461 12.7304C117.507 12.7304 117.548 12.7304 117.594 12.7234C118.1 12.6605 118.354 12.629 118.86 12.5662C119.809 12.4474 120.444 12.3985 121.044 12.402C121.638 12.402 122.262 12.4544 123.197 12.5732C123.7 12.636 123.951 12.671 124.453 12.7339C124.495 12.7408 124.54 12.7408 124.582 12.7408C125.092 12.7408 125.542 12.3705 125.653 11.836C125.762 11.3155 125.814 11.0569 125.922 10.5364C125.922 10.5294 125.922 10.5224 125.926 10.5189C126.044 9.94948 126.519 9.6141 127.004 9.6141C127.272 9.6141 127.544 9.7189 127.761 9.94599C128.075 10.2744 128.375 10.6272 128.654 11.008C131.02 14.5365 131.107 19.1026 130.657 23.1796C130.594 23.6967 131.407 24.088 131.351 24.605C131.285 25.1989 130.287 25.8522 130.175 26.4985C129.599 29.3493 130.719 30.8969 130.712 32.5634C130.712 32.6996 130.688 32.8324 130.639 32.9581C130.196 34.118 127.743 37.926 125.723 40.623C125.493 40.9305 125.175 41.0667 124.861 41.0597C124.303 41.0528 123.759 40.6021 123.755 39.8964C123.727 35.774 123.679 31.6481 123.769 27.5256C123.783 27.1728 123.947 26.8479 124.219 26.6453C125.2 25.9046 127.468 24.5351 128.881 23.55C129.139 23.3927 129.066 22.998 129.013 21.5342C128.985 20.7551 128.999 20.0389 128.794 20.0354C128.783 20.0354 128.776 20.0354 128.766 20.0389C127.227 20.7481 124.9 21.9639 122.667 23.2635C122 23.7386 122.367 27.068 122.991 29.1606C123.054 29.3668 122.583 29.9816 122.056 30.5616C121.641 31.0192 121.194 31.4594 120.936 31.5991C120.884 31.6271 120.856 31.6411 120.828 31.6411C120.8 31.6411 120.769 31.6236 120.716 31.5922C120.462 31.4454 120.015 31.0017 119.603 30.5406C119.077 29.9502 118.606 29.3318 118.668 29.1257C119.289 27.0435 119.656 23.7211 118.989 23.239C116.756 21.915 114.429 20.6852 112.887 19.9621C112.877 19.9621 112.87 19.9586 112.859 19.9586C112.653 19.9586 112.667 20.6713 112.639 21.4468C112.587 22.9036 112.517 23.2949 112.772 23.4556C114.188 24.4513 116.456 25.8452 117.437 26.5964C117.709 26.806 117.873 27.1309 117.887 27.4837C117.981 31.5957 117.936 35.7111 117.908 39.8265C117.904 40.5287 117.36 40.9689 116.802 40.9654C116.488 40.9654 116.17 40.8222 115.94 40.5112C113.934 37.7933 111.471 33.9608 111.024 32.8009C110.975 32.6752 110.951 32.5389 110.951 32.4062C110.944 30.7502 112.064 29.2235 111.485 26.3798C111.373 25.7369 110.372 25.0766 110.309 24.4827C110.253 23.9657 111.066 23.5849 111.003 23.0713C110.549 19.0153 110.633 14.4702 112.999 10.9661C113.379 10.4491 113.798 9.98791 114.234 9.56868C114.447 9.36605 114.708 9.27173 114.963 9.27173M114.974 8.34244C114.461 8.34244 113.972 8.53808 113.595 8.89791C113.096 9.37304 112.643 9.8831 112.252 10.4141C109.621 14.1872 109.88 18.6694 110.068 23.0329C110.033 23.0783 109.984 23.1377 109.946 23.1796C109.709 23.4591 109.314 23.9273 109.388 24.5771C109.45 25.157 109.834 25.6077 110.176 26.0059C110.312 26.1666 110.542 26.4356 110.577 26.5439C110.905 28.1615 110.626 29.2759 110.358 30.3519C110.187 31.0367 110.023 31.6865 110.026 32.4027C110.026 32.6542 110.071 32.8953 110.162 33.1258C110.675 34.4534 113.243 38.4011 115.2 41.0528C115.591 41.5803 116.177 41.8842 116.816 41.8912C117.953 41.8982 118.85 40.9969 118.857 39.837C118.871 37.4334 118.888 33.8839 118.881 31.1135C118.892 31.1275 118.906 31.1415 118.92 31.1555C119.488 31.7913 119.942 32.207 120.263 32.3922C120.368 32.4516 120.563 32.5669 120.842 32.5669C121.114 32.5669 121.313 32.4621 121.407 32.4097C121.735 32.2315 122.192 31.8158 122.768 31.1834C122.782 31.1694 122.792 31.1555 122.806 31.1415C122.799 33.9189 122.817 37.4788 122.834 39.8859C122.841 41.0458 123.738 41.9681 124.879 41.982C125.514 41.989 126.103 41.6991 126.491 41.175C128.403 38.6177 131.02 34.6176 131.525 33.29C131.613 33.063 131.658 32.8184 131.658 32.5704C131.658 31.8472 131.498 31.1939 131.327 30.5022C131.058 29.4157 130.775 28.2942 131.103 26.6837C131.103 26.6802 131.103 26.6767 131.103 26.6732C131.103 26.6697 131.103 26.6662 131.103 26.6627C131.135 26.5684 131.365 26.2994 131.501 26.1387C131.839 25.7404 132.223 25.2933 132.286 24.7098C132.356 24.0565 131.962 23.5814 131.724 23.2984C131.686 23.253 131.637 23.1936 131.602 23.1482C131.787 18.7603 132.042 14.2536 129.411 10.4526C129.118 10.0543 128.79 9.66301 128.438 9.29618C128.054 8.89791 127.544 8.67433 127.004 8.67433C126.03 8.67433 125.21 9.34859 125.011 10.3163C125.011 10.3233 125.011 10.3268 125.008 10.3338C124.9 10.8543 124.847 11.1128 124.739 11.6334C124.718 11.7417 124.642 11.8011 124.582 11.8011C124.073 11.7347 123.822 11.7033 123.312 11.6404C122.335 11.5146 121.679 11.4657 121.044 11.4622C120.399 11.4622 119.733 11.5111 118.742 11.6334C118.236 11.6963 117.981 11.7277 117.475 11.7906C117.402 11.7906 117.329 11.7312 117.304 11.6229C117.2 11.0989 117.144 10.8368 117.039 10.3128C117.011 10.1835 117.001 10.1207 116.973 9.9914C116.77 9.0167 115.95 8.33894 114.977 8.33545L114.974 8.34244ZM113.533 22.8512C113.533 22.6766 113.543 22.4076 113.557 22.142C113.564 21.9499 113.574 21.7333 113.585 21.4853C113.585 21.4363 113.588 21.3839 113.588 21.335C115.033 22.0617 116.756 23.0015 118.347 23.9377C118.445 24.2836 118.442 25.136 118.323 26.1562C118.232 26.0514 118.131 25.9535 118.016 25.8697C117.447 25.433 116.509 24.8181 115.518 24.1718C114.827 23.7211 114.119 23.2565 113.533 22.8547V22.8512ZM123.323 23.9657C124.914 23.0434 126.637 22.1211 128.082 21.4084C128.082 21.4573 128.082 21.5097 128.085 21.5586C128.096 21.8067 128.103 22.0268 128.113 22.2189C128.124 22.4844 128.138 22.7534 128.138 22.9316C127.551 23.3299 126.843 23.7875 126.152 24.2312C125.161 24.8705 124.223 25.4749 123.654 25.9046C123.543 25.9885 123.441 26.0863 123.347 26.1876C123.229 25.164 123.222 24.3081 123.323 23.9657Z" fill="#0B094F"/>
<path d="M123.239 10.1067H123.18C122.3 10.0019 121.662 9.95646 121.037 9.95646C120.385 9.95646 119.739 9.99838 118.857 10.0997H118.832L118.773 10.1032C118.448 10.1032 118.159 9.88659 118.072 9.57216C117.534 7.6507 116.924 5.59298 116.432 3.93703L116.076 2.73874C116.02 2.55008 116.045 2.34047 116.146 2.16928C116.247 1.9981 116.418 1.87582 116.61 1.83041C116.718 1.80595 116.805 1.78499 116.885 1.76403C117.053 1.72211 117.21 1.68018 117.468 1.64525C117.499 1.64175 117.534 1.63826 117.566 1.63826C117.859 1.63826 118.12 1.81294 118.232 2.08194C118.302 2.24964 118.414 2.48021 118.532 2.73175C118.56 2.50816 118.585 2.30553 118.612 2.14134C118.665 1.80945 118.94 1.5614 119.275 1.54044C119.495 1.52647 119.715 1.51599 119.935 1.5055C120.315 1.5055 120.612 1.75704 120.671 2.10291C120.681 2.17278 120.695 2.24614 120.706 2.32649C120.723 2.22518 120.744 2.13085 120.765 2.04701C120.838 1.71861 121.128 1.48804 121.47 1.48804C121.878 1.49502 122.286 1.51249 122.698 1.53695C123.057 1.55791 123.34 1.8339 123.371 2.19374C123.382 2.31252 123.392 2.44877 123.403 2.5955C123.518 2.38938 123.623 2.19723 123.689 2.0505C123.808 1.79198 124.066 1.62429 124.352 1.62429C124.383 1.62429 124.411 1.62429 124.443 1.63127C124.75 1.6697 124.942 1.71512 125.14 1.76403C125.235 1.78499 125.332 1.80945 125.454 1.83739C125.653 1.87932 125.828 2.00509 125.929 2.17976C126.03 2.35095 126.054 2.56056 125.999 2.75271C125.859 3.21736 125.678 3.80428 125.486 4.43661C124.896 6.36157 124.163 8.75816 123.958 9.56867C123.877 9.89008 123.588 10.1137 123.256 10.1137H123.232L123.239 10.1067Z" fill="#FF0000"/>
<path d="M121.48 1.92132H121.484C121.882 1.92831 122.279 1.94578 122.677 1.97023C122.817 1.97722 122.932 2.08901 122.942 2.22875C122.963 2.4768 122.984 2.79821 123.009 3.1266C123.019 3.29429 123.159 3.39561 123.298 3.39561C123.392 3.39561 123.49 3.35019 123.546 3.24888C123.752 2.87856 123.972 2.50125 124.094 2.23225C124.143 2.12744 124.247 2.06106 124.359 2.06106C124.369 2.06106 124.383 2.06106 124.394 2.06106C124.812 2.11347 124.987 2.17984 125.371 2.2602C125.535 2.29513 125.636 2.45933 125.587 2.62003C125.015 4.50307 123.815 8.36347 123.539 9.45696C123.508 9.58622 123.389 9.67356 123.26 9.67356C123.249 9.67356 123.239 9.67356 123.225 9.67356C122.374 9.57574 121.704 9.52683 121.034 9.52683H121.002C120.329 9.52683 119.656 9.57574 118.801 9.67006C118.79 9.67006 118.78 9.67006 118.766 9.67006C118.637 9.67006 118.518 9.58622 118.483 9.45696C117.806 7.0394 117.018 4.41224 116.488 2.61654C116.442 2.45933 116.54 2.29513 116.7 2.2602C117.028 2.18683 117.168 2.12744 117.524 2.07853C117.538 2.07853 117.548 2.07853 117.562 2.07853C117.677 2.07853 117.782 2.14491 117.827 2.25321C117.946 2.53968 118.162 2.97289 118.361 3.39211C118.414 3.50391 118.515 3.55631 118.616 3.55631C118.749 3.55631 118.885 3.46548 118.902 3.30128C118.947 2.90301 118.993 2.49427 119.038 2.21478C119.059 2.08552 119.167 1.9877 119.3 1.98071C119.516 1.96674 119.732 1.95626 119.949 1.94578C119.952 1.94578 119.956 1.94578 119.959 1.94578C120.095 1.94578 120.214 2.0436 120.238 2.17984C120.294 2.50125 120.346 2.95542 120.399 3.42705C120.42 3.59474 120.552 3.68208 120.685 3.68208C120.818 3.68208 120.943 3.60173 120.968 3.43753C121.041 2.94843 121.111 2.4768 121.187 2.1484C121.215 2.01914 121.334 1.92831 121.466 1.92831M121.48 1.04793C121.187 1.04793 120.919 1.15273 120.713 1.3344C120.51 1.16671 120.252 1.06889 119.973 1.06889H119.924C119.701 1.07937 119.478 1.08985 119.251 1.10382C118.906 1.12479 118.602 1.29597 118.407 1.5545C118.194 1.33091 117.894 1.20164 117.569 1.20164C117.517 1.20164 117.465 1.20514 117.412 1.21213C117.126 1.25055 116.948 1.29597 116.777 1.34139C116.7 1.36235 116.62 1.38331 116.519 1.40427C116.205 1.47414 115.933 1.66978 115.772 1.94578C115.608 2.22177 115.57 2.55366 115.661 2.86109L116.017 4.05939C116.505 5.71185 117.116 7.76956 117.653 9.68753C117.793 10.1871 118.253 10.5365 118.776 10.5365C118.818 10.5365 118.864 10.5365 118.909 10.5295C119.774 10.4317 120.402 10.3897 121.013 10.3897H121.041C121.648 10.3897 122.272 10.4352 123.134 10.533C123.18 10.5365 123.221 10.54 123.267 10.54C123.797 10.54 124.261 10.1801 124.39 9.66657C124.593 8.86305 125.329 6.46995 125.918 4.54499C126.11 3.91266 126.288 3.33272 126.431 2.86808C126.526 2.56064 126.484 2.22177 126.32 1.94578C126.156 1.66629 125.877 1.46716 125.559 1.40078C125.444 1.37632 125.35 1.35187 125.259 1.33091C125.053 1.282 124.84 1.22959 124.509 1.18767C124.46 1.18068 124.411 1.17719 124.366 1.17719C124.059 1.17719 123.769 1.29946 123.553 1.50908C123.354 1.27152 123.064 1.11431 122.736 1.09334C122.318 1.06889 121.903 1.05142 121.501 1.04443H121.494H121.48V1.04793Z" fill="#0B094F"/>
<path d="M164.8 30.2052C163.642 30.1632 163.059 30.1458 161.901 30.1074C161.398 30.0899 161.088 30.6244 161.321 31.089C161.751 31.945 162.019 32.8568 162.141 33.8525C162.291 35.0822 161.991 36.1932 161.294 36.9722C160.641 37.6989 159.699 38.0762 158.638 38.0343C156.904 37.9644 156.039 37.933 154.305 37.8701C153.775 37.8526 153.307 37.7792 152.889 37.6465C152.819 37.6255 152.752 37.6744 152.752 37.7478C152.752 39.0264 152.752 39.6693 152.752 40.9479C152.752 41.0073 152.801 41.0597 152.861 41.0632C155.174 41.1505 156.329 41.1959 158.642 41.2973C160.955 41.3951 162.954 40.6999 164.273 39.3199C165.543 37.9889 166.143 36.1128 166 33.9049C165.923 32.724 165.739 31.6725 165.439 30.7152C165.348 30.4288 165.093 30.2261 164.804 30.2157L164.8 30.2052Z" fill="url(#paint13_linear_3096_5498)"/>
<path d="M180.762 30.8445C180.361 30.827 180.058 31.1799 180.11 31.5991C180.208 32.4341 180.225 33.2935 180.166 34.1599C179.942 37.4473 177.954 39.3269 174.824 39.2011C173.948 39.1662 173.237 38.3731 173.237 37.4648C173.237 34.9599 173.233 33.7092 173.23 31.2078C173.23 30.8305 172.933 30.5091 172.567 30.4951C171.632 30.4567 171.164 30.4392 170.229 30.4043C169.863 30.3903 169.566 30.6838 169.566 31.0611C169.57 34.6979 169.573 36.518 169.577 40.1583C169.577 40.6754 169.51 41.161 169.378 41.6082C169.357 41.678 169.406 41.7514 169.479 41.7584C172.096 41.8946 173.401 41.968 176.017 42.1182C178.205 42.244 180.103 41.5628 181.499 40.1234C182.88 38.7015 183.69 36.6508 183.829 34.2123C183.882 33.3109 183.861 32.4375 183.766 31.6061C183.728 31.2497 183.445 30.9668 183.107 30.9528C182.168 30.9074 181.701 30.8864 180.762 30.8445Z" fill="url(#paint14_linear_3096_5498)"/>
<path d="M199.802 40.106C199.802 40.106 199.784 40.106 199.774 40.106C199.341 40.2108 198.86 40.2423 198.305 40.2038C196.111 40.0466 195.012 39.9698 192.817 39.823C191.697 39.7462 190.786 38.7226 190.786 37.5278C190.786 35.2919 190.786 34.1739 190.783 31.9415C190.783 31.6166 190.535 31.3407 190.228 31.3232C189.206 31.2708 188.696 31.2463 187.674 31.1939C187.367 31.1799 187.119 31.428 187.123 31.7529L187.13 41.196C187.13 41.7445 187.06 42.2616 186.917 42.7297C186.907 42.7611 186.91 42.7856 186.924 42.81C186.934 42.824 186.941 42.8275 186.959 42.8275C191.208 43.114 195.455 43.4284 199.701 43.7638C199.791 43.7708 199.861 43.6974 199.861 43.6031C199.861 42.2266 199.861 41.5384 199.861 40.1654C199.861 40.113 199.805 40.1095 199.802 40.1095V40.106Z" fill="url(#paint15_linear_3096_5498)"/>
<path d="M210.935 32.5005C210 32.4411 209.536 32.4096 208.601 32.3502C208.235 32.3258 207.938 32.6332 207.938 33.035C207.938 36.9059 207.938 38.8413 207.942 42.7122C207.942 43.2642 207.875 43.7777 207.743 44.2493C207.722 44.3227 207.771 44.4031 207.844 44.4101C209.372 44.5428 210.14 44.6092 211.668 44.7454C211.741 44.7524 211.79 44.6826 211.773 44.6022C211.658 44.1271 211.598 43.61 211.598 43.0196C211.598 39.1208 211.598 37.1714 211.598 33.2725C211.598 32.8673 211.302 32.5214 210.935 32.497V32.5005Z" fill="url(#paint16_linear_3096_5498)"/>
<path d="M13.0209 39.0718C13.0209 39.9731 12.358 40.7592 11.5415 40.8221C11.381 40.8361 11.2205 40.8186 11.067 40.7732C9.03292 40.1583 7.62684 37.5696 6.97788 33.2445C6.92555 32.8952 6.64643 32.6576 6.32544 32.6786C5.38689 32.7414 4.91587 32.7729 3.97733 32.8358C3.56911 32.8637 3.24812 33.3109 3.32488 33.7406C4.03664 37.8246 5.44272 44.5916 10.9798 44.5113C11.1577 44.4973 11.245 44.4868 11.4229 44.4729C12.3021 44.396 13.0174 45.1192 13.0174 46.0834C13.0174 46.1882 13.1325 46.2301 13.2023 46.1498C14.1339 45.0982 15.1073 44.4274 16.5797 44.1095C16.632 44.099 16.6774 44.0466 16.6774 43.9873C16.6774 40.2421 16.6808 36.4935 16.6843 32.7484C16.6843 32.3502 16.3878 32.0462 16.0214 32.0672C15.0864 32.1231 14.6188 32.151 13.6873 32.2104C13.3209 32.2314 13.0244 32.5772 13.0244 32.9755C13.0244 35.414 13.0244 36.6333 13.0244 39.0718H13.0209Z" fill="url(#paint17_linear_3096_5498)"/>
<path d="M25.6859 39.8999C24.8067 39.9593 24.0914 39.2431 24.0914 38.2963C24.0914 35.9032 24.0914 34.7049 24.0949 32.3083C24.0949 31.9171 23.7983 31.6131 23.432 31.6341C22.4969 31.6865 22.0294 31.7109 21.0978 31.7668C20.7315 31.7878 20.4349 32.1232 20.4349 32.5214C20.4349 36.3329 20.4314 38.2369 20.4279 42.0484C20.4279 42.5899 20.3617 43.107 20.2256 43.5926C20.2046 43.6694 20.2535 43.7393 20.3268 43.7358C24.1054 43.4424 27.884 43.1629 31.6661 42.8974C31.7254 42.8939 31.7742 42.838 31.7742 42.7751C31.7742 41.437 31.7742 40.7663 31.7742 39.4282C31.7742 39.3514 31.7079 39.3025 31.6382 39.3269C31.216 39.4771 30.7519 39.568 30.2216 39.5994C28.4038 39.7182 27.4967 39.7776 25.6789 39.8999H25.6859Z" fill="url(#paint18_linear_3096_5498)"/>
<path d="M47.3004 30.4987C46.3654 30.5371 45.8943 30.5546 44.9593 30.593C44.572 30.6105 44.265 30.9668 44.2999 31.3686C44.3313 31.7598 44.3487 31.952 44.3801 32.3433C44.415 32.773 44.2754 33.2062 43.9928 33.5381C43.7102 33.87 43.3125 34.0726 42.8973 34.0901C42.0146 34.132 41.5749 34.1529 40.6922 34.1984C40.277 34.2193 39.8758 34.0551 39.5967 33.7477C39.3175 33.4402 39.1745 33.014 39.2129 32.5808C39.2443 32.1861 39.2617 31.9869 39.2966 31.5922C39.3315 31.1869 39.0245 30.8515 38.6372 30.869C37.7021 30.9109 37.2346 30.9319 36.2961 30.9773C35.9541 30.9947 35.6645 31.2847 35.6366 31.6446C35.3191 35.4316 35.1586 37.3286 34.8411 41.1296C34.7993 41.6257 34.6981 42.1008 34.5411 42.548C34.5132 42.6249 34.5655 42.7017 34.6388 42.6947C36.167 42.5934 36.9311 42.5445 38.4558 42.4467C38.5255 42.4432 38.5744 42.3733 38.5604 42.3034C38.4697 41.8458 38.4558 41.3287 38.5081 40.7243C38.5779 39.9103 38.6162 39.5016 38.686 38.6876C38.7628 37.8212 39.4501 37.126 40.277 37.0806C41.4877 37.0142 42.0948 36.9827 43.309 36.9198C44.1359 36.8779 44.8232 37.4963 44.8965 38.3452C44.9663 39.1453 45.0011 39.5435 45.0709 40.3435C45.1233 40.934 45.1058 41.4475 45.0151 41.9157C45.0012 41.9855 45.05 42.0484 45.1198 42.0449C46.648 41.9576 47.4121 41.9157 48.9403 41.8318C49.017 41.8283 49.0659 41.748 49.0414 41.6746C48.8844 41.2554 48.7867 40.8047 48.7449 40.3226C48.4343 36.6334 48.2773 34.7888 47.9668 31.0926C47.9354 30.7397 47.6493 30.4812 47.3074 30.4952L47.3004 30.4987Z" fill="url(#paint19_linear_3096_5498)"/>
<path d="M58.1512 38.5827C58.0221 38.5897 57.9593 38.5897 57.8303 38.5967C57.4988 38.6107 57.3348 38.6176 57.0034 38.6316C56.944 38.6316 56.8952 38.5862 56.8952 38.5268C56.8952 38.1879 56.8952 38.0202 56.8952 37.6814C56.8952 34.9389 56.8987 33.5659 56.9022 30.8235C56.9022 30.4497 56.6056 30.1562 56.2393 30.1702C55.3042 30.2016 54.8367 30.2191 53.9016 30.2505C53.5353 30.2645 53.2387 30.5789 53.2387 30.9562C53.2352 34.5826 53.2317 36.3957 53.2282 40.0221C53.2282 40.5391 53.1585 41.0282 53.0259 41.4859C53.0049 41.5592 53.0538 41.6256 53.1271 41.6221C55.6496 41.4963 56.9126 41.437 59.4352 41.3252C64.3617 40.7767 66.5737 34.7992 67.118 30.6139C67.1703 30.2121 66.8703 29.8418 66.4621 29.8523C65.5305 29.8767 65.063 29.8907 64.1314 29.9186C63.8069 29.9291 63.5173 30.1807 63.472 30.5021C63.0673 33.4611 61.8077 38.167 58.1443 38.5827H58.1512Z" fill="url(#paint20_linear_3096_5498)"/>
<path d="M73.8032 29.6637C72.8681 29.6846 72.4006 29.6951 71.4655 29.7196C71.0992 29.7301 70.8026 30.034 70.8026 30.4043C70.8026 33.9643 70.7991 35.746 70.7956 39.3059C70.7956 39.8125 70.7258 40.2946 70.5933 40.7418C70.5723 40.8117 70.6212 40.8815 70.6944 40.878C72.2261 40.8256 72.9937 40.8012 74.5254 40.7523C74.5986 40.7523 74.6475 40.6789 74.63 40.609C74.5149 40.1898 74.4591 39.7252 74.4591 39.1872C74.4591 35.6377 74.4626 33.863 74.4661 30.31C74.4661 29.9432 74.1695 29.6497 73.8032 29.6602V29.6637Z" fill="url(#paint21_linear_3096_5498)"/>
<path d="M91.3736 29.3563C90.4351 29.3668 89.9676 29.3738 89.0325 29.3843C88.6452 29.3878 88.3382 29.7266 88.3731 30.1109C88.4045 30.4847 88.4219 30.6734 88.4533 31.0472C88.4882 31.4594 88.3487 31.8752 88.066 32.1826C87.7834 32.4935 87.3857 32.6752 86.9705 32.6822C86.0878 32.6962 85.6482 32.7032 84.7654 32.7206C84.3502 32.7276 83.949 32.5599 83.6699 32.2595C83.3873 31.959 83.2477 31.5468 83.2861 31.1345C83.3175 30.7572 83.3349 30.5686 83.3698 30.1913C83.4047 29.8035 83.0977 29.4751 82.7104 29.4821C81.7719 29.4995 81.3043 29.5065 80.3693 29.524C80.0273 29.531 79.7378 29.8 79.7098 30.1424C79.3923 33.7407 79.2318 35.5434 78.9143 39.1453C78.8725 39.6169 78.7713 40.0641 78.6143 40.4833C78.5864 40.5567 78.6387 40.6301 78.7155 40.6266C80.2437 40.5847 81.0078 40.5637 82.5394 40.5288C82.6092 40.5288 82.6581 40.4624 82.6441 40.396C82.5534 39.9558 82.536 39.4597 82.5883 38.8868C82.6581 38.1112 82.693 37.7234 82.7662 36.9478C82.843 36.1234 83.5303 35.4805 84.3572 35.4631C85.5714 35.4386 86.1785 35.4281 87.3892 35.4072C88.2161 35.3932 88.9034 36.0081 88.9802 36.8291C89.0499 37.5976 89.0848 37.9819 89.1546 38.754C89.207 39.3235 89.1895 39.8161 89.0988 40.2598C89.0848 40.3261 89.1337 40.389 89.2035 40.3855C90.7317 40.3576 91.4957 40.3436 93.0274 40.3226C93.1042 40.3226 93.153 40.2458 93.1286 40.1759C92.9716 39.7672 92.8704 39.327 92.8285 38.8623C92.5145 35.2954 92.3575 33.5137 92.0435 29.9467C92.0121 29.6079 91.726 29.3493 91.3841 29.3528L91.3736 29.3563Z" fill="url(#paint22_linear_3096_5498)"/>
<path d="M102.811 29.262C101.876 29.2655 101.408 29.269 100.473 29.2759C100.107 29.2759 99.8103 29.5729 99.8103 29.9397C99.8103 33.4473 99.8103 35.1975 99.8103 38.7051C99.8103 39.2047 99.744 39.6763 99.6079 40.113C99.587 40.1829 99.6358 40.2492 99.7091 40.2492C101.241 40.2353 102.008 40.2283 103.544 40.2213C103.617 40.2213 103.666 40.1549 103.648 40.085C103.53 39.6693 103.474 39.2082 103.474 38.6806C103.474 35.1766 103.474 33.4263 103.474 29.9222C103.474 29.5589 103.177 29.2655 102.811 29.2689V29.262Z" fill="url(#paint23_linear_3096_5498)"/>
<path d="M137.854 29.4927C136.919 29.4752 136.452 29.4682 135.517 29.4542C135.15 29.4472 134.854 29.7407 134.854 30.104C134.854 33.629 134.854 35.3933 134.857 38.9183C134.857 39.4214 134.791 39.893 134.658 40.3297C134.638 40.3996 134.686 40.4695 134.76 40.4695C136.291 40.5044 137.055 40.5219 138.587 40.5603C138.66 40.5603 138.709 40.4974 138.692 40.424C138.577 40.0048 138.524 39.5367 138.521 39.0022C138.521 35.4702 138.517 33.7024 138.514 30.1704C138.514 29.8036 138.217 29.5031 137.851 29.4961L137.854 29.4927Z" fill="url(#paint24_linear_3096_5498)"/>
<path d="M145.911 29.6566C144.951 29.6357 144.473 29.6252 143.514 29.6042C143.088 29.5937 142.77 29.9885 142.868 30.4042C143.657 33.8105 144.047 35.5153 144.836 38.932C144.846 38.974 144.853 39.0159 144.86 39.0578C144.867 39.0962 144.867 39.1137 144.874 39.1521C144.92 39.4561 144.958 39.7391 144.962 40.0535C144.962 40.2456 144.951 40.4308 144.927 40.6125C144.92 40.6788 144.969 40.7347 145.035 40.7382C146.647 40.7871 147.453 40.8151 149.065 40.871C149.145 40.871 149.194 40.7941 149.162 40.7208C149.009 40.3644 148.887 39.9696 148.785 39.505C147.892 35.7704 147.446 33.9048 146.556 30.1841C146.483 29.8837 146.218 29.6671 145.911 29.6601V29.6566Z" fill="url(#paint25_linear_3096_5498)"/>
<path d="M129.108 30.2926C127.708 30.2751 127.007 30.2682 125.608 30.2542C125.242 30.2507 124.945 30.5407 124.945 30.9005C124.935 33.5486 124.956 37.0422 124.973 39.5436C124.973 39.6414 125.099 39.6868 125.162 39.61C127.276 36.9618 129.753 33.2621 130.053 32.4551C130.053 32.4481 130.057 32.4377 130.057 32.4307C130.06 31.9765 129.931 31.4839 129.784 30.9249C129.774 30.883 129.764 30.8376 129.75 30.7957C129.673 30.5057 129.411 30.2961 129.108 30.2926Z" fill="url(#paint26_linear_3096_5498)"/>
<path d="M112.873 30.1738C112.573 30.1738 112.308 30.3765 112.231 30.6664C112.221 30.7083 112.207 30.7538 112.196 30.7957C112.05 31.3547 111.921 31.8438 111.924 32.2944C111.924 32.3014 111.924 32.3084 111.928 32.3189C112.21 33.084 114.698 36.8186 116.823 39.5226C116.886 39.5995 117.011 39.5576 117.011 39.4597C117.029 36.9688 117.046 33.4892 117.036 30.8446C117.036 30.4813 116.739 30.1913 116.373 30.1878C114.974 30.1808 114.272 30.1808 112.873 30.1773V30.1738Z" fill="url(#paint27_linear_3096_5498)"/>
</g>
<defs>
<linearGradient id="paint0_linear_3096_5498" x1="159.326" y1="42.3769" x2="159.326" y2="10.6483" gradientUnits="userSpaceOnUse">
<stop stop-color="white"/>
<stop offset="1" stop-color="#ACCCD4"/>
</linearGradient>
<linearGradient id="paint1_linear_3096_5498" x1="176.666" y1="43.2746" x2="176.666" y2="10.7879" gradientUnits="userSpaceOnUse">
<stop stop-color="white"/>
<stop offset="1" stop-color="#ACCCD4"/>
</linearGradient>
<linearGradient id="paint2_linear_3096_5498" x1="193.459" y1="44.9972" x2="193.459" y2="11.092" gradientUnits="userSpaceOnUse">
<stop stop-color="white"/>
<stop offset="1" stop-color="#ACCCD4"/>
</linearGradient>
<linearGradient id="paint3_linear_3096_5498" x1="209.965" y1="46.0592" x2="209.965" y2="11.3785" gradientUnits="userSpaceOnUse">
<stop stop-color="white"/>
<stop offset="1" stop-color="#ACCCD4"/>
</linearGradient>
<linearGradient id="paint4_linear_3096_5498" x1="10.0204" y1="44.5534" x2="10.0204" y2="11.3015" gradientUnits="userSpaceOnUse">
<stop stop-color="white"/>
<stop offset="1" stop-color="#ACCCD4"/>
</linearGradient>
<linearGradient id="paint5_linear_3096_5498" x1="26.0804" y1="44.9518" x2="26.0804" y2="11.2004" gradientUnits="userSpaceOnUse">
<stop stop-color="white"/>
<stop offset="1" stop-color="#ACCCD4"/>
</linearGradient>
<linearGradient id="paint6_linear_3096_5498" x1="41.9973" y1="43.8826" x2="41.9973" y2="10.8578" gradientUnits="userSpaceOnUse">
<stop stop-color="white"/>
<stop offset="1" stop-color="#ACCCD4"/>
</linearGradient>
<linearGradient id="paint7_linear_3096_5498" x1="60.3528" y1="42.7646" x2="60.3528" y2="10.6727" gradientUnits="userSpaceOnUse">
<stop stop-color="white"/>
<stop offset="1" stop-color="#ACCCD4"/>
</linearGradient>
<linearGradient id="paint8_linear_3096_5498" x1="72.826" y1="41.996" x2="72.826" y2="10.5154" gradientUnits="userSpaceOnUse">
<stop stop-color="white"/>
<stop offset="1" stop-color="#ACCCD4"/>
</linearGradient>
<linearGradient id="paint9_linear_3096_5498" x1="86.0704" y1="41.7409" x2="86.0704" y2="10.428" gradientUnits="userSpaceOnUse">
<stop stop-color="white"/>
<stop offset="1" stop-color="#ACCCD4"/>
</linearGradient>
<linearGradient id="paint10_linear_3096_5498" x1="101.851" y1="41.3358" x2="101.851" y2="10.3758" gradientUnits="userSpaceOnUse">
<stop stop-color="white"/>
<stop offset="1" stop-color="#ACCCD4"/>
</linearGradient>
<linearGradient id="paint11_linear_3096_5498" x1="142.174" y1="42.0171" x2="142.174" y2="10.4666" gradientUnits="userSpaceOnUse">
<stop stop-color="white"/>
<stop offset="1" stop-color="#ACCCD4"/>
</linearGradient>
<linearGradient id="paint12_linear_3096_5498" x1="121.076" y1="41.3008" x2="121.076" y2="11.1583" gradientUnits="userSpaceOnUse">
<stop stop-color="white"/>
<stop offset="1" stop-color="#ACCCD4"/>
</linearGradient>
<linearGradient id="paint13_linear_3096_5498" x1="159.385" y1="30.7606" x2="159.385" y2="41.2588" gradientUnits="userSpaceOnUse">
<stop stop-color="#131351"/>
<stop offset="0.52" stop-color="#C6393E"/>
<stop offset="1" stop-color="white"/>
</linearGradient>
<linearGradient id="paint14_linear_3096_5498" x1="176.617" y1="31.096" x2="176.617" y2="42.1392" gradientUnits="userSpaceOnUse">
<stop stop-color="#131351"/>
<stop offset="0.52" stop-color="#C6393E"/>
<stop offset="1" stop-color="white"/>
</linearGradient>
<linearGradient id="paint15_linear_3096_5498" x1="193.389" y1="31.9101" x2="193.389" y2="43.7498" gradientUnits="userSpaceOnUse">
<stop stop-color="#131351"/>
<stop offset="0.52" stop-color="#C6393E"/>
<stop offset="1" stop-color="white"/>
</linearGradient>
<linearGradient id="paint16_linear_3096_5498" x1="209.756" y1="33.0804" x2="209.756" y2="44.7594" gradientUnits="userSpaceOnUse">
<stop stop-color="#131351"/>
<stop offset="0.52" stop-color="#C6393E"/>
<stop offset="1" stop-color="white"/>
</linearGradient>
<linearGradient id="paint17_linear_3096_5498" x1="9.99937" y1="32.7869" x2="9.99937" y2="44.3157" gradientUnits="userSpaceOnUse">
<stop stop-color="#131351"/>
<stop offset="0.52" stop-color="#C6393E"/>
<stop offset="1" stop-color="white"/>
</linearGradient>
<linearGradient id="paint18_linear_3096_5498" x1="26.0034" y1="32.3503" x2="26.0034" y2="43.7463" gradientUnits="userSpaceOnUse">
<stop stop-color="#131351"/>
<stop offset="0.52" stop-color="#C6393E"/>
<stop offset="1" stop-color="white"/>
</linearGradient>
<linearGradient id="paint19_linear_3096_5498" x1="41.7878" y1="31.2183" x2="41.7878" y2="42.7087" gradientUnits="userSpaceOnUse">
<stop stop-color="#131351"/>
<stop offset="0.52" stop-color="#C6393E"/>
<stop offset="1" stop-color="white"/>
</linearGradient>
<linearGradient id="paint20_linear_3096_5498" x1="60.0772" y1="30.544" x2="60.0772" y2="41.6326" gradientUnits="userSpaceOnUse">
<stop stop-color="#131351"/>
<stop offset="0.52" stop-color="#C6393E"/>
<stop offset="1" stop-color="white"/>
</linearGradient>
<linearGradient id="paint21_linear_3096_5498" x1="72.6134" y1="30.324" x2="72.6134" y2="40.8885" gradientUnits="userSpaceOnUse">
<stop stop-color="#131351"/>
<stop offset="0.52" stop-color="#C6393E"/>
<stop offset="1" stop-color="white"/>
</linearGradient>
<linearGradient id="paint22_linear_3096_5498" x1="85.861" y1="30.0201" x2="85.861" y2="40.6406" gradientUnits="userSpaceOnUse">
<stop stop-color="#131351"/>
<stop offset="0.52" stop-color="#C6393E"/>
<stop offset="1" stop-color="white"/>
</linearGradient>
<linearGradient id="paint23_linear_3096_5498" x1="101.625" y1="29.9083" x2="101.625" y2="40.2562" gradientUnits="userSpaceOnUse">
<stop stop-color="#131351"/>
<stop offset="0.52" stop-color="#C6393E"/>
<stop offset="1" stop-color="white"/>
</linearGradient>
<linearGradient id="paint24_linear_3096_5498" x1="136.675" y1="30.1075" x2="136.675" y2="40.5673" gradientUnits="userSpaceOnUse">
<stop stop-color="#131351"/>
<stop offset="0.52" stop-color="#C6393E"/>
<stop offset="1" stop-color="white"/>
</linearGradient>
<linearGradient id="paint25_linear_3096_5498" x1="146.008" y1="30.268" x2="146.008" y2="40.8815" gradientUnits="userSpaceOnUse">
<stop stop-color="#131351"/>
<stop offset="0.52" stop-color="#C6393E"/>
<stop offset="1" stop-color="white"/>
</linearGradient>
<linearGradient id="paint26_linear_3096_5498" x1="127.499" y1="30.9005" x2="127.499" y2="41.238" gradientUnits="userSpaceOnUse">
<stop stop-color="#131351"/>
<stop offset="0.52" stop-color="#C6393E"/>
<stop offset="1" stop-color="white"/>
</linearGradient>
<linearGradient id="paint27_linear_3096_5498" x1="114.482" y1="30.8236" x2="114.482" y2="41.1611" gradientUnits="userSpaceOnUse">
<stop stop-color="#131351"/>
<stop offset="0.52" stop-color="#C6393E"/>
<stop offset="1" stop-color="white"/>
</linearGradient>
<clipPath id="clip0_3096_5498">
<rect width="220" height="50" fill="white"/>
</clipPath>
</defs>
</svg>
