<?xml version="1.0" encoding="UTF-8"?>
<svg id="Logo" xmlns="http://www.w3.org/2000/svg" version="1.1" viewBox="0 0 102 26">
  <!-- Generator: Adobe Illustrator 29.7.1, SVG Export Plug-In . SVG Version: 2.1.1 Build 8)  -->
  <defs>
    <style>
      .st0 {
        fill: #fff;
      }

      .st1 {
        fill: #e9fd46;
      }
    </style>
  </defs>
  <path class="st1" d="M13.922,9.2302l.6817-3.1767H.6816L0,9.2302h4.9824l-2.2802,10.7159h3.9585l2.2799-10.7159h4.9815Z"/>
  <path class="st1" d="M39.4383,6.0535s-1.9574,9.208-1.9658,9.2281c-.0088-.021-3.4468-8.0817-3.4468-8.0817-.3673-.8623-1.192-1.2996-2.4518-1.2996-1.8254,0-2.9127.7749-3.2329,2.3028l-1.8381,8.6426h-8.4943c-.4978,0-.4978-.1078-.4978-.2868,0-.0762.0173-.1994.0348-.3197l.3964-1.8422h7.6257l.644-2.9855h-7.6284l.3216-1.5569c.1272-.5554.3015-.7007.8482-.7007h7.0991l.6618-3.1003h-9.5238c-1.5436,0-2.3811.6982-2.7156,2.2638l-1.9734,9.2808c-.0415.2055-.0628.4144-.0628.6066,0,1.0742.7268,1.7414,1.8966,1.7414h12.5958c1.0069,0,1.8772-.7031,2.0872-1.6866,0,0,1.6167-7.5169,1.6325-7.5446.0213.0286,3.4394,8.0084,3.4394,8.0084.51,1.2095,1.5167,1.376,2.5284,1.376,1.7351,0,2.8197-.81,3.1372-2.3418l2.497-11.7042h-3.6142,0Z"/>
  <path class="st1" d="M51.7476,5.9004c-5.3986,0-7.4005.9634-8.6168,6.6649-.2272,1.0785-.2738,1.8641-.2738,2.7118,0,3.3801,1.9026,4.8225,6.3617,4.8225,5.4019,0,7.4045-.9634,8.6168-6.6653.2272-1.0782.2739-1.8637.2739-2.7114-.0003-3.3801-1.9028-4.8225-6.3617-4.8225h0ZM53.8418,12.945c-.6556,3.086-1.6108,3.9775-4.2595,3.9775-2.0196,0-2.7013-.4973-2.7013-1.9706,0-.5323.0796-1.1535.2433-1.8987.6554-3.0845,1.6061-3.9757,4.2401-3.9757,2.0089,0,2.7208.5207,2.7208,1.9899,0,.538-.0796,1.1525-.2433,1.8777Z"/>
  <path class="st0" d="M70.8491,12.903c1.4962-.5024,1.8658-1.7282,2.0081-2.6597.0587-.3907.0796-.7993.0796-1.0517,0-1.9652-1.2035-3.1384-3.2193-3.1384h-6.6294c-1.5436,0-2.3809.6982-2.7156,2.2638l-1.9734,9.2808c-.0415.2055-.0627.4144-.0627.6066,0,1.0742.7268,1.7414,1.8968,1.7414h7.2044c3.033,0,3.9245-1.3629,4.4395-3.7165.0804-.401.1208-.7779.1208-1.1248,0-1.0431-.41-1.8119-1.1487-2.2014h0ZM67.9741,15.0856c0,.1157-.03.2783-.0616.4503l-.0109.06c-.1825.9101-.5992,1.2499-1.5369,1.2499h-3.1997c-.5556,0-.5556-.0989-.5556-.2485,0-.0977.0178-.236.053-.4107l.3783-1.7518h4.0334c.753,0,.9003.2384.9003.6504l-.0003.0003h-.0002ZM63.666,11.45l.3554-1.6308c.1124-.56.2378-.665.7912-.665h3.2575c.7953,0,.8621.3023.8621.612,0,.1355-.0178.2929-.0526.4677-.1986.908-.5479,1.2161-1.3841,1.2161h-3.8294Z"/>
  <path class="st0" d="M87.0394,6.0535h-9.5243c-1.5436,0-2.3812.6982-2.7152,2.2638l-1.9734,9.2808c-.0415.2055-.0627.4144-.0627.6066,0,1.0742.7268,1.7414,1.8969,1.7414h9.4948l.6619-3.1004h-7.2824c-.498,0-.498-.1078-.498-.2868,0-.0762.0175-.1994.0349-.3197l.3963-1.8422h7.6257l.644-2.9855h-7.6285l.3216-1.5569c.1271-.5554.3017-.7007.8482-.7007h7.0991l.6619-3.1003-.0005-.0003h0Z"/>
  <path class="st0" d="M88.0782,6.0535l-.6819,3.1767h4.9825l-2.28,10.7159h3.9584l2.2797-10.7159h4.9816l.6815-3.1767h-13.9219.0002Z"/>
</svg>