<svg width="281" height="53" viewBox="0 0 281 53" fill="none" xmlns="http://www.w3.org/2000/svg">
<g clip-path="url(#clip0_31126_134431)">
<path d="M20.6133 1.52539V6.31543L31.1875 5.55566L32.0527 14.0605L18.6133 36.4668L31.3027 35.5488L30.752 45.4863L24.1133 46.0059V51.0234L14.6133 52.0254V46.4375L4.41113 47.1416L3.83008 39.4258L17.375 16.333L6.02441 17.7422L4.31152 7.48828L11.6133 6.96289V0.400391L20.6133 1.52539ZM280.033 6.40039C280.941 13.6972 277.085 14.6779 274.656 15.1895H274.66C272.241 15.6988 269.295 15.4058 269.271 15.4033L269.3 15.7529C269.3 15.7529 271.604 17.4664 273.732 17.3311C275.155 17.2386 275.465 16.918 275.465 16.918L275.402 19.0635L274.663 47.6973L266.852 47.5127L257.02 31.127L257.663 46.2686L246.105 46.9189L246.934 9.70996H255.551L265.197 30.3809L265.105 9.24512L273.96 8.62109C274.957 8.51549 275.834 8.39312 276.247 8.25781C277.524 7.84197 279.347 7.45981 280.033 6.40039ZM212.473 44.585L203.71 46.1797L197.416 10.417L207.818 7.40039L212.473 44.585ZM161.329 8.12305L159.31 38.1631L169.121 35.2256L166.956 46.0078L148.994 45.5527L149.274 7.40039L161.329 8.12305ZM99.8906 45.8887L89.9404 45.8828L90.0166 27.1855L85.5186 33.6709L81.4023 33.5029L77.4023 27.4932L77.5049 45.7441L67.1602 45.6445L68.1143 8.88184H77.0303L83.4424 22.9482L90.3633 8.40039H98.6133L99.8906 45.8887ZM48.7988 8.43945C63.1824 7.59687 63.1361 20.5967 63.1357 20.667C63.1357 20.667 63.8943 28.6773 64.1484 33.0635C64.3993 37.4497 60.8584 45.8818 49.3896 45.8818C37.9613 45.8818 36.2463 35.7492 36.2344 35.6777L35.0527 22.5225C35.0527 11.8128 41.9803 8.8388 48.7988 8.43945ZM182.635 37.1367L193.522 35.7305L194.417 44.1963L173.184 45.8379L172.121 7.90039L184.192 7.40039L182.635 37.1367ZM119.373 7.47559C125.234 6.87838 129.172 9.83215 129.835 16.3271C130.495 22.8222 127.491 24.8418 127.491 24.8418L127.495 24.8457C127.533 24.8518 131.34 25.4826 131.957 31.5254C133.201 43.74 121.534 44.0732 121.534 44.0732L106.775 45.5781L102.891 8.87109C102.913 8.8694 113.518 8.07232 119.373 7.47559ZM143.639 45.3379L135.051 45.0146L135.701 9.13574L145.995 8.40039L143.639 45.3379ZM230.106 8.41113C244.275 8.81378 243.08 21.583 243.08 21.583C243.081 21.6501 243.14 29.4956 243.015 33.7842C242.889 38.0912 238.707 46.0355 227.499 45.0586C216.323 44.0844 215.513 34.0226 215.509 33.9658L215.473 21.0088C216.384 10.54 223.407 8.21973 230.106 8.41113ZM49.1455 19.2881C45.5217 19.463 44.6373 22.1397 44.6934 23.2783L45.5645 32.542C45.5645 32.542 46.0627 35.8518 50.1055 35.6572C54.1335 35.4634 54.191 31.1096 54.1914 31.0703L53.4424 22.5918C53.4424 22.5918 52.7659 19.1133 49.1455 19.2881ZM229.833 18.3584C226.285 18.1142 225.109 20.7344 225.03 21.8994L224.793 31.4238C224.793 31.4238 224.892 34.8505 228.853 35.1211C232.318 35.3578 233.176 31.9699 233.336 31.1201L233.367 30.9326L233.631 22.2197C233.631 22.2197 233.38 18.6029 229.833 18.3584Z" fill="black" fill-opacity="0.4"/>
<path d="M17.6133 1.52539V6.31543L28.1875 5.55566L29.0527 14.0605L15.6133 36.4668L28.3027 35.5488L27.752 45.4863L21.1133 46.0059V51.0234L11.6133 52.0254V46.4375L1.41113 47.1416L0.830078 39.4258L14.375 16.333L3.02441 17.7422L1.31152 7.48828L8.61328 6.96289V0.400391L17.6133 1.52539ZM277.033 6.40039C277.941 13.6972 274.085 14.6779 271.656 15.1895H271.66C269.241 15.6988 266.295 15.4058 266.271 15.4033L266.3 15.7529C266.3 15.7529 268.604 17.4664 270.732 17.3311C272.155 17.2386 272.465 16.918 272.465 16.918L272.402 19.0635L271.663 47.6973L263.852 47.5127L254.02 31.127L254.663 46.2686L243.105 46.9189L243.934 9.70996H252.551L262.197 30.3809L262.105 9.24512L270.96 8.62109C271.957 8.51549 272.834 8.39312 273.247 8.25781C274.524 7.84197 276.347 7.45981 277.033 6.40039ZM209.473 44.585L200.71 46.1797L194.416 10.417L204.818 7.40039L209.473 44.585ZM158.329 8.12305L156.31 38.1631L166.121 35.2256L163.956 46.0078L145.994 45.5527L146.274 7.40039L158.329 8.12305ZM96.8906 45.8887L86.9404 45.8828L87.0166 27.1855L82.5186 33.6709L78.4023 33.5029L74.4023 27.4932L74.5049 45.7441L64.1602 45.6445L65.1143 8.88184H74.0303L80.4424 22.9482L87.3633 8.40039H95.6133L96.8906 45.8887ZM45.7988 8.43945C60.1825 7.59687 60.1361 20.5968 60.1357 20.667C60.1357 20.667 60.8943 28.6773 61.1484 33.0635C61.3993 37.4497 57.8584 45.8818 46.3896 45.8818C34.9613 45.8818 33.2463 35.7492 33.2344 35.6777L32.0527 22.5225C32.0527 11.8128 38.9803 8.8388 45.7988 8.43945ZM179.635 37.1367L190.522 35.7305L191.417 44.1963L170.184 45.8379L169.121 7.90039L181.192 7.40039L179.635 37.1367ZM116.373 7.47559C122.234 6.87838 126.172 9.83215 126.835 16.3271C127.495 22.8222 124.491 24.8418 124.491 24.8418L124.495 24.8457C124.533 24.8518 128.34 25.4826 128.957 31.5254C130.201 43.74 118.534 44.0732 118.534 44.0732L103.775 45.5781L99.8906 8.87109C99.9131 8.8694 110.518 8.07232 116.373 7.47559ZM140.639 45.3379L132.051 45.0146L132.701 9.13574L142.995 8.40039L140.639 45.3379ZM227.106 8.41113C241.275 8.81378 240.08 21.583 240.08 21.583C240.081 21.6501 240.14 29.4956 240.015 33.7842C239.889 38.0912 235.707 46.0355 224.499 45.0586C213.323 44.0844 212.513 34.0226 212.509 33.9658L212.473 21.0088C213.384 10.54 220.407 8.21973 227.106 8.41113ZM120.277 32.5947C120.013 30.0274 118.218 29.6439 116.964 29.7725C115.964 29.8741 111.945 30.1778 111.895 30.1816L112.469 35.8193L117.637 35.291C117.641 35.2908 120.538 35.1638 120.277 32.5947ZM46.1455 19.2881C42.5217 19.463 41.6373 22.1397 41.6934 23.2783L42.5645 32.542C42.5645 32.542 43.0627 35.8518 47.1055 35.6572C51.1335 35.4634 51.191 31.1096 51.1914 31.0703L50.4424 22.5918C50.4424 22.5918 49.7659 19.1133 46.1455 19.2881ZM226.833 18.3584C223.285 18.1142 222.109 20.7344 222.03 21.8994L221.793 31.4238C221.793 31.4238 221.892 34.8505 225.853 35.1211C229.318 35.3578 230.176 31.9699 230.336 31.1201L230.367 30.9326L230.631 22.2197C230.631 22.2197 230.38 18.6029 226.833 18.3584ZM118.182 18.624C117.957 16.4228 116.31 16.1091 115.161 16.2246C114.237 16.3171 110.511 16.6074 110.511 16.6074L111.003 21.4365L115.745 20.9541C115.745 20.9541 118.406 20.8254 118.182 18.624Z" fill="white"/>
<path d="M18.6133 1.52539V6.31543L29.1875 5.55566L30.0527 14.0605L16.6133 36.4668L29.3027 35.5488L28.752 45.4863L22.1133 46.0059V51.0234L12.6133 52.0254V46.4375L2.41113 47.1416L1.83008 39.4258L15.375 16.333L4.02441 17.7422L2.31152 7.48828L9.61328 6.96289V0.400391L18.6133 1.52539ZM278.033 6.40039C278.941 13.6972 275.085 14.6779 272.656 15.1895H272.66C270.241 15.6988 267.295 15.4058 267.271 15.4033L267.3 15.7529C267.3 15.7529 269.604 17.4664 271.732 17.3311C273.155 17.2386 273.465 16.918 273.465 16.918L273.402 19.0635L272.663 47.6973L264.852 47.5127L255.02 31.127L255.663 46.2686L244.105 46.9189L244.934 9.70996H253.551L263.197 30.3809L263.105 9.24512L271.96 8.62109C272.957 8.51549 273.834 8.39312 274.247 8.25781C275.524 7.84197 277.347 7.45981 278.033 6.40039ZM210.473 44.585L201.71 46.1797L195.416 10.417L205.818 7.40039L210.473 44.585ZM159.329 8.12305L157.31 38.1631L167.121 35.2256L164.956 46.0078L146.994 45.5527L147.274 7.40039L159.329 8.12305ZM97.8906 45.8887L87.9404 45.8828L88.0166 27.1855L83.5186 33.6709L79.4023 33.5029L75.4023 27.4932L75.5049 45.7441L65.1602 45.6445L66.1143 8.88184H75.0303L81.4424 22.9482L88.3633 8.40039H96.6133L97.8906 45.8887ZM46.7988 8.43945C61.1825 7.59687 61.1361 20.5968 61.1357 20.667C61.1357 20.667 61.8943 28.6773 62.1484 33.0635C62.3993 37.4497 58.8584 45.8818 47.3896 45.8818C35.9613 45.8818 34.2463 35.7492 34.2344 35.6777L33.0527 22.5225C33.0527 11.8128 39.9803 8.8388 46.7988 8.43945ZM180.635 37.1367L191.522 35.7305L192.417 44.1963L171.184 45.8379L170.121 7.90039L182.192 7.40039L180.635 37.1367ZM117.373 7.47559C123.234 6.87838 127.172 9.83215 127.835 16.3271C128.495 22.8222 125.491 24.8418 125.491 24.8418L125.495 24.8457C125.533 24.8518 129.34 25.4826 129.957 31.5254C131.201 43.74 119.534 44.0732 119.534 44.0732L104.775 45.5781L100.891 8.87109C100.913 8.8694 111.518 8.07232 117.373 7.47559ZM141.639 45.3379L133.051 45.0146L133.701 9.13574L143.995 8.40039L141.639 45.3379ZM228.106 8.41113C242.275 8.81378 241.08 21.583 241.08 21.583C241.081 21.6501 241.14 29.4956 241.015 33.7842C240.889 38.0912 236.707 46.0355 225.499 45.0586C214.323 44.0844 213.513 34.0226 213.509 33.9658L213.473 21.0088C214.384 10.54 221.407 8.21973 228.106 8.41113ZM121.277 32.5947C121.013 30.0274 119.218 29.6439 117.964 29.7725C116.964 29.8741 112.945 30.1778 112.895 30.1816L113.469 35.8193L118.637 35.291C118.641 35.2908 121.538 35.1638 121.277 32.5947ZM47.1455 19.2881C43.5217 19.463 42.6373 22.1397 42.6934 23.2783L43.5645 32.542C43.5645 32.542 44.0627 35.8518 48.1055 35.6572C52.1335 35.4634 52.191 31.1096 52.1914 31.0703L51.4424 22.5918C51.4424 22.5918 50.7659 19.1133 47.1455 19.2881ZM227.833 18.3584C224.285 18.1142 223.109 20.7344 223.03 21.8994L222.793 31.4238C222.793 31.4238 222.892 34.8505 226.853 35.1211C230.318 35.3578 231.176 31.9699 231.336 31.1201L231.367 30.9326L231.631 22.2197C231.631 22.2197 231.38 18.6029 227.833 18.3584ZM119.182 18.624C118.957 16.4228 117.31 16.1091 116.161 16.2246C115.237 16.3171 111.511 16.6074 111.511 16.6074L112.003 21.4365L116.745 20.9541C116.745 20.9541 119.406 20.8254 119.182 18.624Z" fill="#E1E6DD"/>
</g>
<defs>
<clipPath id="clip0_31126_134431">
<rect width="281" height="53" fill="white"/>
</clipPath>
</defs>
</svg>
